<svg width="564" height="789" viewBox="0 0 564 789" fill="none" xmlns="http://www.w3.org/2000/svg">
<path d="M148.082 33.7227C191.767 9.4344 234.813 -1.10419 277.728 0.696289C320.646 2.49699 363.466 16.6404 406.692 41.7617C493.059 91.9536 526.724 181.913 548.492 278.985C560.209 331.255 561.783 385.205 562.448 438.807V438.808C563.257 497.68 563.48 585.227 563.499 658.058C563.509 694.472 563.467 727.207 563.424 750.839C563.402 762.654 563.38 772.194 563.363 778.78C563.355 782.073 563.348 784.628 563.343 786.359C563.34 787.225 563.338 787.885 563.337 788.328C563.337 788.39 563.337 788.447 563.337 788.5H7.14551C7.14087 788.398 7.13596 788.278 7.12988 788.144C7.10506 787.592 7.06787 786.773 7.02051 785.697C6.92577 783.546 6.78834 780.373 6.61719 776.285C6.27489 768.11 5.79856 756.278 5.26074 741.649C4.18511 712.393 2.86458 671.951 1.8877 627.213C-0.0662617 537.728 -0.647472 431.076 4.83789 362.339C9.66037 301.727 16.5428 235.645 36.6943 176.667C56.8425 117.699 90.2427 65.8731 148.082 33.7227Z" fill="#8AA3A0" stroke="black"/>
</svg>
