<svg width="152" height="500" viewBox="0 0 152 500" fill="none" xmlns="http://www.w3.org/2000/svg">
<g style="mix-blend-mode:multiply" opacity="0.8">
<mask id="path-1-inside-1_5_642" fill="white">
<path d="M119.234 69.1342C117.496 70.3761 115.522 71.2512 113.435 71.7062C111.417 72.28 109.367 72.744 107.285 73.323C103.432 74.4185 99.3078 75.9076 96.5915 79.0008C93.8753 82.094 92.6473 85.9112 91.7265 89.7861C90.94 93.8114 89.6493 97.7226 87.8849 101.428C86.5166 103.962 84.8115 106.301 82.8159 108.381C84.8581 99.7245 86.1015 90.9005 86.5306 82.0198C86.5982 79.5303 86.5634 77.0523 86.4262 74.5859C88.6488 69.04 92.0339 64.031 96.3543 59.8951C98.8108 57.4692 101.367 54.9754 102.693 51.7367C103.962 48.1461 104.365 44.309 103.871 40.5362C103.63 36.0907 102.363 31.7621 100.169 27.8881C99.7598 27.2396 98.6013 27.5822 98.8495 28.4083C99.2205 30.0696 99.2599 31.788 98.9654 33.4653C98.7805 35.1544 98.4066 36.8176 97.8504 38.424C96.7617 41.5687 95.2592 44.6068 93.8581 47.6294C91.1577 53.3817 87.9945 59.1337 86.2275 65.3327C86.0428 66.0314 85.8773 66.751 85.7135 67.4305C84.9276 61.9684 83.4578 56.6272 81.3384 51.5321C73.9609 34.0478 56.4006 23.9425 47.8847 7.24343C46.8529 5.23108 46.0229 3.12169 45.4067 0.946001C45.3293 0.730991 45.1951 0.540918 45.0183 0.395862C44.8415 0.250807 44.6287 0.156158 44.4022 0.121925C44.1758 0.0876915 43.9443 0.115149 43.732 0.201383C43.5198 0.287617 43.3348 0.429424 43.1965 0.61183C40.0897 5.21382 40.6343 10.7555 42.8025 15.6378C45.4523 21.6095 50.4559 25.9097 54.0184 31.279C56.0001 34.1059 57.1787 37.4156 57.4296 40.8582C57.592 43.568 57.8183 46.6421 60.3403 48.259C62.8624 49.8759 65.6406 49.0463 68.3047 49.3965C71.2405 49.8502 73.9511 51.2337 76.0367 53.3429C80.9886 58.1589 82.7698 65.3533 83.6228 72.1655C83.6559 73.1187 83.7047 74.0807 83.7011 75.0443C83.6987 75.3614 83.6807 75.6699 83.6783 75.987C83.676 76.3042 83.5129 76.6143 83.4582 76.9331C83.4403 77.0737 83.4511 77.2164 83.4899 77.3527C83.5286 77.4889 83.5945 77.6159 83.6837 77.7261C83.5823 81.368 83.2679 85.0046 82.8209 88.6393C82.2784 85.8165 81.1217 83.1476 79.4322 80.8209C77.7428 78.4943 75.5618 76.5666 73.0432 75.1738C71.1644 74.1915 69.0716 73.6657 67.1769 72.7672C65.2254 71.6829 63.5956 70.1042 62.4515 68.19C59.9226 64.3042 57.0369 60.6616 53.8319 57.3094C51.2382 54.7274 48.5127 52.2806 45.6664 49.9787C44.5108 48.5492 43.0574 47.3877 41.4068 46.5746C41.1512 46.4217 40.8451 46.3764 40.5558 46.4488C40.2665 46.5212 40.0177 46.7052 39.8641 46.9605C39.7106 47.2157 39.6648 47.5213 39.737 47.8099C39.8091 48.0985 39.9932 48.3465 40.2488 48.4994L44.0551 51.5181C45.7745 53.7787 47.0213 56.3613 47.7216 59.1128C49.0815 63.8952 49.8608 69.0537 52.7639 73.1732C53.8655 74.9306 55.3293 76.4337 57.0583 77.5827C58.9625 78.6469 61.1186 79.1814 63.3018 79.1304C65.4927 79.0445 67.6765 79.4211 69.7103 80.2356C71.5988 81.1208 73.2981 82.3614 74.715 83.8894C78.3242 87.7026 79.8601 92.6855 81.4695 97.5552C80.8499 101.002 80.1553 104.417 79.4257 107.802C78.4654 112.282 77.4456 116.739 76.4171 121.211C76.2778 120.117 76.1106 119.017 75.8944 117.931C75.384 115.439 74.8371 111.981 72.6068 110.321C71.5632 109.642 70.3969 109.172 69.1728 108.937C67.8875 108.607 66.6277 108.185 65.4033 107.675C63.084 106.684 60.9247 105.356 58.995 103.735C57.0556 102.11 55.3436 100.233 53.9049 98.1536C52.3847 95.6457 51.0152 93.0497 49.8039 90.3793C47.2435 85.6693 43.2355 81.9051 38.369 79.6398C35.6177 78.2859 32.436 77.3709 30.4255 74.9492C28.4149 72.5275 27.7193 69.2441 27.0212 66.2778C26.9646 66.0663 26.8476 65.8759 26.6844 65.7298C26.5212 65.5836 26.3188 65.488 26.102 65.4546C25.8851 65.4213 25.6632 65.4515 25.4631 65.5418C25.2631 65.632 25.0935 65.7783 24.9752 65.9629C23.6234 68.1648 22.9095 70.6968 22.9129 73.2775C22.9162 75.8582 23.6366 78.3865 24.9941 80.5814C26.4114 82.9122 28.5445 84.7241 31.0769 85.7483C34.0712 86.9804 37.3728 87.2943 40.2426 88.786C43.081 90.2469 45.2446 92.744 46.2835 95.7582C47.4034 99.0924 47.4224 102.832 49.4178 105.851C52.322 110.3 57.7613 111.391 62.3874 113.108C65.291 114.033 67.8419 115.819 69.6997 118.229C71.8629 121.187 72.7309 124.751 73.8471 128.166C73.9047 128.351 74.0005 128.521 74.1284 128.667C74.2563 128.812 74.4133 128.929 74.5894 129.01C73.7878 132.653 72.9985 136.293 72.2929 139.948C71.7428 142.663 71.2853 145.377 70.8033 148.099C70.2107 142.993 68.8672 137.85 64.8625 134.505C63.4241 133.305 61.8054 132.355 60.269 131.275C58.764 130.195 57.358 128.984 56.0674 127.657C53.5849 125.107 51.3957 122.289 49.5403 119.254C47.9544 116.698 45.9086 113.548 42.5188 113.668C42.2916 113.687 42.0738 113.768 41.8882 113.9C41.7026 114.032 41.556 114.212 41.4638 114.42C41.3716 114.629 41.3373 114.858 41.3643 115.084C41.3912 115.309 41.4786 115.524 41.6173 115.704C43.6134 118.354 44.1725 121.808 44.7601 124.991C45.1759 128.27 46.1864 131.446 47.7421 134.362C49.45 136.917 51.857 138.928 54.6777 140.157C57.5231 141.563 60.6766 142.658 63.0491 144.818C66.0336 147.504 67.5792 151.033 68.9691 154.713C69.0897 155.018 69.3068 155.276 69.5876 155.447C68.737 160.963 67.9964 166.448 67.4461 171.998C66.6009 169.491 65.2518 167.182 63.4812 165.214C61.7055 163.215 59.5128 161.629 57.0568 160.566C55.8729 160.059 54.6361 159.686 53.3691 159.452C51.8237 159.381 50.3165 158.952 48.9673 158.198C47.9569 157.308 47.2473 156.128 46.9359 154.82C46.5613 153.502 46.1133 152.205 45.5884 150.917C45.1437 149.742 44.4506 148.677 43.5562 147.793C42.6617 146.91 41.5869 146.229 40.4048 145.798C38.328 145.133 36.1697 144.753 33.9894 144.668C32.2911 142.724 30.424 140.934 28.4098 139.319C26.3494 137.672 24.3833 135.911 22.5211 134.044C20.7712 132.191 19.4441 129.982 18.6306 127.568C18.4051 126.775 17.0017 126.488 16.7848 127.539C16.2807 129.961 16.3416 132.466 16.9628 134.859C17.6869 137.236 18.9398 139.417 20.6281 141.241C22.3874 143.172 24.5607 144.681 26.9866 145.657C28.7264 146.29 30.5515 146.66 32.4015 146.755C33.0287 147.534 33.5808 148.37 34.0504 149.253C36.7142 154.298 34.6281 161.141 39.2706 165.241C43.1198 168.643 48.7053 168.202 53.4146 169.329C58.9644 170.675 63.7565 174.15 66.7533 178.999C66.7914 179.134 66.8261 179.256 66.7787 179.414C66.7695 179.566 66.8123 179.717 66.9001 179.841C66.5119 185.543 66.3524 191.258 66.3658 196.977C65.0887 195.68 63.4281 194.826 61.6276 194.54C59.2381 193.901 56.8242 193.269 54.4189 192.713C52.1663 192.078 49.9531 191.312 47.791 190.417C45.7032 189.719 43.8193 188.521 42.3039 186.927C40.8732 185.382 39.5998 183.74 38.1517 182.134C36.7037 180.529 35.1335 178.865 33.5421 177.313C29.9633 173.847 26.1157 170.669 22.035 167.808C21.1229 167.157 20.286 168.305 20.6214 169.159C22.703 174.527 24.9665 179.791 27.2019 185.142C29.0776 189.554 30.6118 194.485 33.6675 198.257C34.9288 199.874 36.6519 201.072 38.6099 201.691C40.6585 202.174 42.8009 202.089 44.8062 201.446C48.9033 200.373 52.9991 198.18 57.2727 199.774C61.5463 201.367 63.9864 205.579 66.466 209.278C66.5447 209.388 66.6393 209.485 66.7466 209.568C67.2219 218.283 68.2451 226.959 69.81 235.544L69.7366 235.565C69.5843 235.728 69.4734 235.926 69.4131 236.14C69.3528 236.355 69.3449 236.581 69.3902 236.799C69.4354 237.018 69.5324 237.222 69.6731 237.395C69.8137 237.568 69.9939 237.705 70.1986 237.794C70.1986 237.794 70.2263 237.892 70.2367 237.928C70.7538 240.537 71.3164 243.12 71.9069 245.708C69.6495 243.089 66.7516 241.097 63.494 239.925C60.3181 238.705 57.0841 237.699 54.0468 236.176C51.3947 234.677 48.8697 232.965 46.497 231.057C44.0978 229.234 41.413 227.818 38.5507 226.868C35.6397 225.929 32.7001 225.354 30.6145 222.901C28.7833 220.784 27.8686 217.893 26.4378 215.464C24.987 212.891 22.6688 210.915 19.8948 209.888C16.6856 208.69 13.2123 208.702 9.89747 207.97C8.26227 207.637 6.69732 207.025 5.27155 206.16C4.57241 205.726 3.94295 205.189 3.40436 204.568C3.265 204.415 3.14562 204.245 3.04909 204.062C2.88605 203.489 2.65837 202.921 2.4674 202.342C2.03724 200.829 -0.436663 201.427 0.0703473 202.931C1.86125 208.765 4.26061 215.111 10.0315 218.112C11.6015 218.984 13.3509 219.186 14.9473 219.918C16.4925 220.777 17.7252 222.102 18.4693 223.704C20.3465 227.383 22.0097 231.168 23.4505 235.039C26.0651 241.165 30.4404 247.952 37.519 249.275C41.0733 249.792 44.7016 249.426 48.0827 248.21C49.8561 247.706 51.5584 246.998 53.271 246.326C54.6658 245.662 56.1856 245.302 57.7296 245.269C59.7289 245.373 60.187 246.891 61.1551 248.343C61.6547 249.126 62.3471 249.767 63.1662 250.206C63.9853 250.645 64.9037 250.867 65.8338 250.85C67.6254 250.921 69.2619 250.772 70.8772 251.711C72.3812 252.582 73.5142 253.971 74.0636 255.618C74.1333 255.823 74.2453 256.011 74.3926 256.17C75.7946 261.706 77.3557 267.196 78.7769 272.752C114.781 412.577 140.019 485.205 146.082 495.508L148.557 499.564C149.627 498.679 150.701 497.807 151.779 496.947C139.785 465.598 126.699 442.312 83.8819 280.57C81.6351 272.111 78.9445 263.764 76.6976 255.304C76.6815 255.195 76.6512 255.088 76.6074 254.987C76.5391 254.677 76.4522 254.371 76.3473 254.072C75.6539 251.385 74.9839 248.688 74.3372 245.98C73.6133 242.876 72.9818 239.772 72.3855 236.605C76.3823 232.344 80.3409 227.948 82.8204 222.627C84.1233 219.818 84.7879 216.622 86.4519 214.013C87.8845 212.029 89.8216 210.463 92.0627 209.477C96.6111 207.155 101.863 205.727 105.581 202.02C109.957 197.65 109.892 191.563 110.509 185.784C111.272 178.679 113.735 171.86 117.692 165.9C117.858 165.602 117.925 165.259 117.882 164.92C117.839 164.582 117.689 164.266 117.454 164.02C117.218 163.773 116.909 163.608 116.573 163.549C116.236 163.489 115.889 163.539 115.583 163.691C110.233 166.547 102.668 176.014 102.668 176.014C102.668 176.014 97.5233 187.815 94.4023 193.436C93.0557 195.956 91.2305 198.19 89.0285 200.014C87.8789 200.916 86.5875 201.622 85.2071 202.103C83.6509 202.478 82.1971 203.193 80.9508 204.197C77.107 207.927 77.1952 212.887 76.7805 217.844C76.3125 223.209 74.6951 228.414 72.0378 233.104L71.8225 233.324C70.6352 226.274 69.8531 219.161 69.48 212.021C69.2955 208.118 69.2577 204.172 69.2811 200.21C71.328 197.675 73.7565 195.472 76.4797 193.679C80.3655 190.794 84.4036 187.747 86.1031 183.031C88.187 177.296 85.9887 170.866 88.516 165.203C89.737 162.538 91.7665 160.323 94.3172 158.872C97.2682 157.163 100.702 157.057 103.837 155.809C110.05 153.251 112.374 146.221 113.88 140.268C113.937 140.034 113.917 139.789 113.825 139.567C113.732 139.346 113.571 139.16 113.364 139.036C113.158 138.912 112.918 138.857 112.678 138.879C112.438 138.901 112.212 138.999 112.031 139.159C109.572 141.345 106.783 143.13 103.766 144.449C100.92 145.836 97.9047 146.844 94.7968 147.448C91.8269 148.068 88.6914 148.525 86.0672 150.128C83.8185 151.491 82.0824 153.556 81.1278 156.003C79.2501 160.743 79.8703 166.039 78.5302 170.904C77.1901 175.768 74.4515 180.503 71.9787 185.056C71.1025 186.624 70.2263 188.192 69.5125 189.819C69.6753 186.3 69.8968 182.787 70.1772 179.279C71.0284 168.975 72.5201 158.833 74.3157 148.643C75.4849 146.98 76.8875 145.493 78.4804 144.228C82.6291 140.873 87.7302 138.961 92.1314 135.982C94.1642 134.711 95.8547 132.962 97.0553 130.89C98.1735 128.778 98.791 126.44 100.07 124.428C102.557 120.438 106.518 118.283 110.89 116.921C115.262 115.559 119.967 114.208 121.873 109.75C122.208 108.929 121.261 108.249 120.546 108.386C114.923 109.484 109.155 109.608 103.512 110.593C99.0611 111.397 94.2962 112.818 91.7143 116.848C89.1325 120.879 90.1382 125.485 88.1502 129.466C86.1622 133.446 81.3525 135.5 77.9853 138.396C77.2089 139.068 76.4782 139.791 75.7983 140.56C77.5126 131.805 79.4434 123.067 81.4266 114.327L81.8739 112.367C84.739 109.984 88.5475 109.151 91.8738 107.506C95.5564 105.687 98.3928 102.518 99.7894 98.6624C101.365 94.9047 101.944 90.8501 103.811 87.2336C104.697 85.5572 105.966 84.1121 107.516 83.0154C109.478 81.6399 111.951 81.4114 114.074 80.3724C116.053 79.3922 117.752 77.9285 119.012 76.1175C120.273 74.3065 121.054 72.2073 121.282 70.0154C121.309 68.9002 119.937 68.5386 119.234 69.1342Z"/>
</mask>
<path d="M119.234 69.1342C117.496 70.3761 115.522 71.2512 113.435 71.7062C111.417 72.28 109.367 72.744 107.285 73.323C103.432 74.4185 99.3078 75.9076 96.5915 79.0008C93.8753 82.094 92.6473 85.9112 91.7265 89.7861C90.94 93.8114 89.6493 97.7226 87.8849 101.428C86.5166 103.962 84.8115 106.301 82.8159 108.381C84.8581 99.7245 86.1015 90.9005 86.5306 82.0198C86.5982 79.5303 86.5634 77.0523 86.4262 74.5859C88.6488 69.04 92.0339 64.031 96.3543 59.8951C98.8108 57.4692 101.367 54.9754 102.693 51.7367C103.962 48.1461 104.365 44.309 103.871 40.5362C103.63 36.0907 102.363 31.7621 100.169 27.8881C99.7598 27.2396 98.6013 27.5822 98.8495 28.4083C99.2205 30.0696 99.2599 31.788 98.9654 33.4653C98.7805 35.1544 98.4066 36.8176 97.8504 38.424C96.7617 41.5687 95.2592 44.6068 93.8581 47.6294C91.1577 53.3817 87.9945 59.1337 86.2275 65.3327C86.0428 66.0314 85.8773 66.751 85.7135 67.4305C84.9276 61.9684 83.4578 56.6272 81.3384 51.5321C73.9609 34.0478 56.4006 23.9425 47.8847 7.24343C46.8529 5.23108 46.0229 3.12169 45.4067 0.946001C45.3293 0.730991 45.1951 0.540918 45.0183 0.395862C44.8415 0.250807 44.6287 0.156158 44.4022 0.121925C44.1758 0.0876915 43.9443 0.115149 43.732 0.201383C43.5198 0.287617 43.3348 0.429424 43.1965 0.61183C40.0897 5.21382 40.6343 10.7555 42.8025 15.6378C45.4523 21.6095 50.4559 25.9097 54.0184 31.279C56.0001 34.1059 57.1787 37.4156 57.4296 40.8582C57.592 43.568 57.8183 46.6421 60.3403 48.259C62.8624 49.8759 65.6406 49.0463 68.3047 49.3965C71.2405 49.8502 73.9511 51.2337 76.0367 53.3429C80.9886 58.1589 82.7698 65.3533 83.6228 72.1655C83.6559 73.1187 83.7047 74.0807 83.7011 75.0443C83.6987 75.3614 83.6807 75.6699 83.6783 75.987C83.676 76.3042 83.5129 76.6143 83.4582 76.9331C83.4403 77.0737 83.4511 77.2164 83.4899 77.3527C83.5286 77.4889 83.5945 77.6159 83.6837 77.7261C83.5823 81.368 83.2679 85.0046 82.8209 88.6393C82.2784 85.8165 81.1217 83.1476 79.4322 80.8209C77.7428 78.4943 75.5618 76.5666 73.0432 75.1738C71.1644 74.1915 69.0716 73.6657 67.1769 72.7672C65.2254 71.6829 63.5956 70.1042 62.4515 68.19C59.9226 64.3042 57.0369 60.6616 53.8319 57.3094C51.2382 54.7274 48.5127 52.2806 45.6664 49.9787C44.5108 48.5492 43.0574 47.3877 41.4068 46.5746C41.1512 46.4217 40.8451 46.3764 40.5558 46.4488C40.2665 46.5212 40.0177 46.7052 39.8641 46.9605C39.7106 47.2157 39.6648 47.5213 39.737 47.8099C39.8091 48.0985 39.9932 48.3465 40.2488 48.4994L44.0551 51.5181C45.7745 53.7787 47.0213 56.3613 47.7216 59.1128C49.0815 63.8952 49.8608 69.0537 52.7639 73.1732C53.8655 74.9306 55.3293 76.4337 57.0583 77.5827C58.9625 78.6469 61.1186 79.1814 63.3018 79.1304C65.4927 79.0445 67.6765 79.4211 69.7103 80.2356C71.5988 81.1208 73.2981 82.3614 74.715 83.8894C78.3242 87.7026 79.8601 92.6855 81.4695 97.5552C80.8499 101.002 80.1553 104.417 79.4257 107.802C78.4654 112.282 77.4456 116.739 76.4171 121.211C76.2778 120.117 76.1106 119.017 75.8944 117.931C75.384 115.439 74.8371 111.981 72.6068 110.321C71.5632 109.642 70.3969 109.172 69.1728 108.937C67.8875 108.607 66.6277 108.185 65.4033 107.675C63.084 106.684 60.9247 105.356 58.995 103.735C57.0556 102.11 55.3436 100.233 53.9049 98.1536C52.3847 95.6457 51.0152 93.0497 49.8039 90.3793C47.2435 85.6693 43.2355 81.9051 38.369 79.6398C35.6177 78.2859 32.436 77.3709 30.4255 74.9492C28.4149 72.5275 27.7193 69.2441 27.0212 66.2778C26.9646 66.0663 26.8476 65.8759 26.6844 65.7298C26.5212 65.5836 26.3188 65.488 26.102 65.4546C25.8851 65.4213 25.6632 65.4515 25.4631 65.5418C25.2631 65.632 25.0935 65.7783 24.9752 65.9629C23.6234 68.1648 22.9095 70.6968 22.9129 73.2775C22.9162 75.8582 23.6366 78.3865 24.9941 80.5814C26.4114 82.9122 28.5445 84.7241 31.0769 85.7483C34.0712 86.9804 37.3728 87.2943 40.2426 88.786C43.081 90.2469 45.2446 92.744 46.2835 95.7582C47.4034 99.0924 47.4224 102.832 49.4178 105.851C52.322 110.3 57.7613 111.391 62.3874 113.108C65.291 114.033 67.8419 115.819 69.6997 118.229C71.8629 121.187 72.7309 124.751 73.8471 128.166C73.9047 128.351 74.0005 128.521 74.1284 128.667C74.2563 128.812 74.4133 128.929 74.5894 129.01C73.7878 132.653 72.9985 136.293 72.2929 139.948C71.7428 142.663 71.2853 145.377 70.8033 148.099C70.2107 142.993 68.8672 137.85 64.8625 134.505C63.4241 133.305 61.8054 132.355 60.269 131.275C58.764 130.195 57.358 128.984 56.0674 127.657C53.5849 125.107 51.3957 122.289 49.5403 119.254C47.9544 116.698 45.9086 113.548 42.5188 113.668C42.2916 113.687 42.0738 113.768 41.8882 113.9C41.7026 114.032 41.556 114.212 41.4638 114.42C41.3716 114.629 41.3373 114.858 41.3643 115.084C41.3912 115.309 41.4786 115.524 41.6173 115.704C43.6134 118.354 44.1725 121.808 44.7601 124.991C45.1759 128.27 46.1864 131.446 47.7421 134.362C49.45 136.917 51.857 138.928 54.6777 140.157C57.5231 141.563 60.6766 142.658 63.0491 144.818C66.0336 147.504 67.5792 151.033 68.9691 154.713C69.0897 155.018 69.3068 155.276 69.5876 155.447C68.737 160.963 67.9964 166.448 67.4461 171.998C66.6009 169.491 65.2518 167.182 63.4812 165.214C61.7055 163.215 59.5128 161.629 57.0568 160.566C55.8729 160.059 54.6361 159.686 53.3691 159.452C51.8237 159.381 50.3165 158.952 48.9673 158.198C47.9569 157.308 47.2473 156.128 46.9359 154.82C46.5613 153.502 46.1133 152.205 45.5884 150.917C45.1437 149.742 44.4506 148.677 43.5562 147.793C42.6617 146.91 41.5869 146.229 40.4048 145.798C38.328 145.133 36.1697 144.753 33.9894 144.668C32.2911 142.724 30.424 140.934 28.4098 139.319C26.3494 137.672 24.3833 135.911 22.5211 134.044C20.7712 132.191 19.4441 129.982 18.6306 127.568C18.4051 126.775 17.0017 126.488 16.7848 127.539C16.2807 129.961 16.3416 132.466 16.9628 134.859C17.6869 137.236 18.9398 139.417 20.6281 141.241C22.3874 143.172 24.5607 144.681 26.9866 145.657C28.7264 146.29 30.5515 146.66 32.4015 146.755C33.0287 147.534 33.5808 148.37 34.0504 149.253C36.7142 154.298 34.6281 161.141 39.2706 165.241C43.1198 168.643 48.7053 168.202 53.4146 169.329C58.9644 170.675 63.7565 174.15 66.7533 178.999C66.7914 179.134 66.8261 179.256 66.7787 179.414C66.7695 179.566 66.8123 179.717 66.9001 179.841C66.5119 185.543 66.3524 191.258 66.3658 196.977C65.0887 195.68 63.4281 194.826 61.6276 194.54C59.2381 193.901 56.8242 193.269 54.4189 192.713C52.1663 192.078 49.9531 191.312 47.791 190.417C45.7032 189.719 43.8193 188.521 42.3039 186.927C40.8732 185.382 39.5998 183.74 38.1517 182.134C36.7037 180.529 35.1335 178.865 33.5421 177.313C29.9633 173.847 26.1157 170.669 22.035 167.808C21.1229 167.157 20.286 168.305 20.6214 169.159C22.703 174.527 24.9665 179.791 27.2019 185.142C29.0776 189.554 30.6118 194.485 33.6675 198.257C34.9288 199.874 36.6519 201.072 38.6099 201.691C40.6585 202.174 42.8009 202.089 44.8062 201.446C48.9033 200.373 52.9991 198.18 57.2727 199.774C61.5463 201.367 63.9864 205.579 66.466 209.278C66.5447 209.388 66.6393 209.485 66.7466 209.568C67.2219 218.283 68.2451 226.959 69.81 235.544L69.7366 235.565C69.5843 235.728 69.4734 235.926 69.4131 236.14C69.3528 236.355 69.3449 236.581 69.3902 236.799C69.4354 237.018 69.5324 237.222 69.6731 237.395C69.8137 237.568 69.9939 237.705 70.1986 237.794C70.1986 237.794 70.2263 237.892 70.2367 237.928C70.7538 240.537 71.3164 243.12 71.9069 245.708C69.6495 243.089 66.7516 241.097 63.494 239.925C60.3181 238.705 57.0841 237.699 54.0468 236.176C51.3947 234.677 48.8697 232.965 46.497 231.057C44.0978 229.234 41.413 227.818 38.5507 226.868C35.6397 225.929 32.7001 225.354 30.6145 222.901C28.7833 220.784 27.8686 217.893 26.4378 215.464C24.987 212.891 22.6688 210.915 19.8948 209.888C16.6856 208.69 13.2123 208.702 9.89747 207.97C8.26227 207.637 6.69732 207.025 5.27155 206.16C4.57241 205.726 3.94295 205.189 3.40436 204.568C3.265 204.415 3.14562 204.245 3.04909 204.062C2.88605 203.489 2.65837 202.921 2.4674 202.342C2.03724 200.829 -0.436663 201.427 0.0703473 202.931C1.86125 208.765 4.26061 215.111 10.0315 218.112C11.6015 218.984 13.3509 219.186 14.9473 219.918C16.4925 220.777 17.7252 222.102 18.4693 223.704C20.3465 227.383 22.0097 231.168 23.4505 235.039C26.0651 241.165 30.4404 247.952 37.519 249.275C41.0733 249.792 44.7016 249.426 48.0827 248.21C49.8561 247.706 51.5584 246.998 53.271 246.326C54.6658 245.662 56.1856 245.302 57.7296 245.269C59.7289 245.373 60.187 246.891 61.1551 248.343C61.6547 249.126 62.3471 249.767 63.1662 250.206C63.9853 250.645 64.9037 250.867 65.8338 250.85C67.6254 250.921 69.2619 250.772 70.8772 251.711C72.3812 252.582 73.5142 253.971 74.0636 255.618C74.1333 255.823 74.2453 256.011 74.3926 256.17C75.7946 261.706 77.3557 267.196 78.7769 272.752C114.781 412.577 140.019 485.205 146.082 495.508L148.557 499.564C149.627 498.679 150.701 497.807 151.779 496.947C139.785 465.598 126.699 442.312 83.8819 280.57C81.6351 272.111 78.9445 263.764 76.6976 255.304C76.6815 255.195 76.6512 255.088 76.6074 254.987C76.5391 254.677 76.4522 254.371 76.3473 254.072C75.6539 251.385 74.9839 248.688 74.3372 245.98C73.6133 242.876 72.9818 239.772 72.3855 236.605C76.3823 232.344 80.3409 227.948 82.8204 222.627C84.1233 219.818 84.7879 216.622 86.4519 214.013C87.8845 212.029 89.8216 210.463 92.0627 209.477C96.6111 207.155 101.863 205.727 105.581 202.02C109.957 197.65 109.892 191.563 110.509 185.784C111.272 178.679 113.735 171.86 117.692 165.9C117.858 165.602 117.925 165.259 117.882 164.92C117.839 164.582 117.689 164.266 117.454 164.02C117.218 163.773 116.909 163.608 116.573 163.549C116.236 163.489 115.889 163.539 115.583 163.691C110.233 166.547 102.668 176.014 102.668 176.014C102.668 176.014 97.5233 187.815 94.4023 193.436C93.0557 195.956 91.2305 198.19 89.0285 200.014C87.8789 200.916 86.5875 201.622 85.2071 202.103C83.6509 202.478 82.1971 203.193 80.9508 204.197C77.107 207.927 77.1952 212.887 76.7805 217.844C76.3125 223.209 74.6951 228.414 72.0378 233.104L71.8225 233.324C70.6352 226.274 69.8531 219.161 69.48 212.021C69.2955 208.118 69.2577 204.172 69.2811 200.21C71.328 197.675 73.7565 195.472 76.4797 193.679C80.3655 190.794 84.4036 187.747 86.1031 183.031C88.187 177.296 85.9887 170.866 88.516 165.203C89.737 162.538 91.7665 160.323 94.3172 158.872C97.2682 157.163 100.702 157.057 103.837 155.809C110.05 153.251 112.374 146.221 113.88 140.268C113.937 140.034 113.917 139.789 113.825 139.567C113.732 139.346 113.571 139.16 113.364 139.036C113.158 138.912 112.918 138.857 112.678 138.879C112.438 138.901 112.212 138.999 112.031 139.159C109.572 141.345 106.783 143.13 103.766 144.449C100.92 145.836 97.9047 146.844 94.7968 147.448C91.8269 148.068 88.6914 148.525 86.0672 150.128C83.8185 151.491 82.0824 153.556 81.1278 156.003C79.2501 160.743 79.8703 166.039 78.5302 170.904C77.1901 175.768 74.4515 180.503 71.9787 185.056C71.1025 186.624 70.2263 188.192 69.5125 189.819C69.6753 186.3 69.8968 182.787 70.1772 179.279C71.0284 168.975 72.5201 158.833 74.3157 148.643C75.4849 146.98 76.8875 145.493 78.4804 144.228C82.6291 140.873 87.7302 138.961 92.1314 135.982C94.1642 134.711 95.8547 132.962 97.0553 130.89C98.1735 128.778 98.791 126.44 100.07 124.428C102.557 120.438 106.518 118.283 110.89 116.921C115.262 115.559 119.967 114.208 121.873 109.75C122.208 108.929 121.261 108.249 120.546 108.386C114.923 109.484 109.155 109.608 103.512 110.593C99.0611 111.397 94.2962 112.818 91.7143 116.848C89.1325 120.879 90.1382 125.485 88.1502 129.466C86.1622 133.446 81.3525 135.5 77.9853 138.396C77.2089 139.068 76.4782 139.791 75.7983 140.56C77.5126 131.805 79.4434 123.067 81.4266 114.327L81.8739 112.367C84.739 109.984 88.5475 109.151 91.8738 107.506C95.5564 105.687 98.3928 102.518 99.7894 98.6624C101.365 94.9047 101.944 90.8501 103.811 87.2336C104.697 85.5572 105.966 84.1121 107.516 83.0154C109.478 81.6399 111.951 81.4114 114.074 80.3724C116.053 79.3922 117.752 77.9285 119.012 76.1175C120.273 74.3065 121.054 72.2073 121.282 70.0154C121.309 68.9002 119.937 68.5386 119.234 69.1342Z" fill="#333333"/>
<path d="M119.234 69.1342C117.496 70.3761 115.522 71.2512 113.435 71.7062C111.417 72.28 109.367 72.744 107.285 73.323C103.432 74.4185 99.3078 75.9076 96.5915 79.0008C93.8753 82.094 92.6473 85.9112 91.7265 89.7861C90.94 93.8114 89.6493 97.7226 87.8849 101.428C86.5166 103.962 84.8115 106.301 82.8159 108.381C84.8581 99.7245 86.1015 90.9005 86.5306 82.0198C86.5982 79.5303 86.5634 77.0523 86.4262 74.5859C88.6488 69.04 92.0339 64.031 96.3543 59.8951C98.8108 57.4692 101.367 54.9754 102.693 51.7367C103.962 48.1461 104.365 44.309 103.871 40.5362C103.63 36.0907 102.363 31.7621 100.169 27.8881C99.7598 27.2396 98.6013 27.5822 98.8495 28.4083C99.2205 30.0696 99.2599 31.788 98.9654 33.4653C98.7805 35.1544 98.4066 36.8176 97.8504 38.424C96.7617 41.5687 95.2592 44.6068 93.8581 47.6294C91.1577 53.3817 87.9945 59.1337 86.2275 65.3327C86.0428 66.0314 85.8773 66.751 85.7135 67.4305C84.9276 61.9684 83.4578 56.6272 81.3384 51.5321C73.9609 34.0478 56.4006 23.9425 47.8847 7.24343C46.8529 5.23108 46.0229 3.12169 45.4067 0.946001C45.3293 0.730991 45.1951 0.540918 45.0183 0.395862C44.8415 0.250807 44.6287 0.156158 44.4022 0.121925C44.1758 0.0876915 43.9443 0.115149 43.732 0.201383C43.5198 0.287617 43.3348 0.429424 43.1965 0.61183C40.0897 5.21382 40.6343 10.7555 42.8025 15.6378C45.4523 21.6095 50.4559 25.9097 54.0184 31.279C56.0001 34.1059 57.1787 37.4156 57.4296 40.8582C57.592 43.568 57.8183 46.6421 60.3403 48.259C62.8624 49.8759 65.6406 49.0463 68.3047 49.3965C71.2405 49.8502 73.9511 51.2337 76.0367 53.3429C80.9886 58.1589 82.7698 65.3533 83.6228 72.1655C83.6559 73.1187 83.7047 74.0807 83.7011 75.0443C83.6987 75.3614 83.6807 75.6699 83.6783 75.987C83.676 76.3042 83.5129 76.6143 83.4582 76.9331C83.4403 77.0737 83.4511 77.2164 83.4899 77.3527C83.5286 77.4889 83.5945 77.6159 83.6837 77.7261C83.5823 81.368 83.2679 85.0046 82.8209 88.6393C82.2784 85.8165 81.1217 83.1476 79.4322 80.8209C77.7428 78.4943 75.5618 76.5666 73.0432 75.1738C71.1644 74.1915 69.0716 73.6657 67.1769 72.7672C65.2254 71.6829 63.5956 70.1042 62.4515 68.19C59.9226 64.3042 57.0369 60.6616 53.8319 57.3094C51.2382 54.7274 48.5127 52.2806 45.6664 49.9787C44.5108 48.5492 43.0574 47.3877 41.4068 46.5746C41.1512 46.4217 40.8451 46.3764 40.5558 46.4488C40.2665 46.5212 40.0177 46.7052 39.8641 46.9605C39.7106 47.2157 39.6648 47.5213 39.737 47.8099C39.8091 48.0985 39.9932 48.3465 40.2488 48.4994L44.0551 51.5181C45.7745 53.7787 47.0213 56.3613 47.7216 59.1128C49.0815 63.8952 49.8608 69.0537 52.7639 73.1732C53.8655 74.9306 55.3293 76.4337 57.0583 77.5827C58.9625 78.6469 61.1186 79.1814 63.3018 79.1304C65.4927 79.0445 67.6765 79.4211 69.7103 80.2356C71.5988 81.1208 73.2981 82.3614 74.715 83.8894C78.3242 87.7026 79.8601 92.6855 81.4695 97.5552C80.8499 101.002 80.1553 104.417 79.4257 107.802C78.4654 112.282 77.4456 116.739 76.4171 121.211C76.2778 120.117 76.1106 119.017 75.8944 117.931C75.384 115.439 74.8371 111.981 72.6068 110.321C71.5632 109.642 70.3969 109.172 69.1728 108.937C67.8875 108.607 66.6277 108.185 65.4033 107.675C63.084 106.684 60.9247 105.356 58.995 103.735C57.0556 102.11 55.3436 100.233 53.9049 98.1536C52.3847 95.6457 51.0152 93.0497 49.8039 90.3793C47.2435 85.6693 43.2355 81.9051 38.369 79.6398C35.6177 78.2859 32.436 77.3709 30.4255 74.9492C28.4149 72.5275 27.7193 69.2441 27.0212 66.2778C26.9646 66.0663 26.8476 65.8759 26.6844 65.7298C26.5212 65.5836 26.3188 65.488 26.102 65.4546C25.8851 65.4213 25.6632 65.4515 25.4631 65.5418C25.2631 65.632 25.0935 65.7783 24.9752 65.9629C23.6234 68.1648 22.9095 70.6968 22.9129 73.2775C22.9162 75.8582 23.6366 78.3865 24.9941 80.5814C26.4114 82.9122 28.5445 84.7241 31.0769 85.7483C34.0712 86.9804 37.3728 87.2943 40.2426 88.786C43.081 90.2469 45.2446 92.744 46.2835 95.7582C47.4034 99.0924 47.4224 102.832 49.4178 105.851C52.322 110.3 57.7613 111.391 62.3874 113.108C65.291 114.033 67.8419 115.819 69.6997 118.229C71.8629 121.187 72.7309 124.751 73.8471 128.166C73.9047 128.351 74.0005 128.521 74.1284 128.667C74.2563 128.812 74.4133 128.929 74.5894 129.01C73.7878 132.653 72.9985 136.293 72.2929 139.948C71.7428 142.663 71.2853 145.377 70.8033 148.099C70.2107 142.993 68.8672 137.85 64.8625 134.505C63.4241 133.305 61.8054 132.355 60.269 131.275C58.764 130.195 57.358 128.984 56.0674 127.657C53.5849 125.107 51.3957 122.289 49.5403 119.254C47.9544 116.698 45.9086 113.548 42.5188 113.668C42.2916 113.687 42.0738 113.768 41.8882 113.9C41.7026 114.032 41.556 114.212 41.4638 114.42C41.3716 114.629 41.3373 114.858 41.3643 115.084C41.3912 115.309 41.4786 115.524 41.6173 115.704C43.6134 118.354 44.1725 121.808 44.7601 124.991C45.1759 128.27 46.1864 131.446 47.7421 134.362C49.45 136.917 51.857 138.928 54.6777 140.157C57.5231 141.563 60.6766 142.658 63.0491 144.818C66.0336 147.504 67.5792 151.033 68.9691 154.713C69.0897 155.018 69.3068 155.276 69.5876 155.447C68.737 160.963 67.9964 166.448 67.4461 171.998C66.6009 169.491 65.2518 167.182 63.4812 165.214C61.7055 163.215 59.5128 161.629 57.0568 160.566C55.8729 160.059 54.6361 159.686 53.3691 159.452C51.8237 159.381 50.3165 158.952 48.9673 158.198C47.9569 157.308 47.2473 156.128 46.9359 154.82C46.5613 153.502 46.1133 152.205 45.5884 150.917C45.1437 149.742 44.4506 148.677 43.5562 147.793C42.6617 146.91 41.5869 146.229 40.4048 145.798C38.328 145.133 36.1697 144.753 33.9894 144.668C32.2911 142.724 30.424 140.934 28.4098 139.319C26.3494 137.672 24.3833 135.911 22.5211 134.044C20.7712 132.191 19.4441 129.982 18.6306 127.568C18.4051 126.775 17.0017 126.488 16.7848 127.539C16.2807 129.961 16.3416 132.466 16.9628 134.859C17.6869 137.236 18.9398 139.417 20.6281 141.241C22.3874 143.172 24.5607 144.681 26.9866 145.657C28.7264 146.29 30.5515 146.66 32.4015 146.755C33.0287 147.534 33.5808 148.37 34.0504 149.253C36.7142 154.298 34.6281 161.141 39.2706 165.241C43.1198 168.643 48.7053 168.202 53.4146 169.329C58.9644 170.675 63.7565 174.15 66.7533 178.999C66.7914 179.134 66.8261 179.256 66.7787 179.414C66.7695 179.566 66.8123 179.717 66.9001 179.841C66.5119 185.543 66.3524 191.258 66.3658 196.977C65.0887 195.68 63.4281 194.826 61.6276 194.54C59.2381 193.901 56.8242 193.269 54.4189 192.713C52.1663 192.078 49.9531 191.312 47.791 190.417C45.7032 189.719 43.8193 188.521 42.3039 186.927C40.8732 185.382 39.5998 183.74 38.1517 182.134C36.7037 180.529 35.1335 178.865 33.5421 177.313C29.9633 173.847 26.1157 170.669 22.035 167.808C21.1229 167.157 20.286 168.305 20.6214 169.159C22.703 174.527 24.9665 179.791 27.2019 185.142C29.0776 189.554 30.6118 194.485 33.6675 198.257C34.9288 199.874 36.6519 201.072 38.6099 201.691C40.6585 202.174 42.8009 202.089 44.8062 201.446C48.9033 200.373 52.9991 198.18 57.2727 199.774C61.5463 201.367 63.9864 205.579 66.466 209.278C66.5447 209.388 66.6393 209.485 66.7466 209.568C67.2219 218.283 68.2451 226.959 69.81 235.544L69.7366 235.565C69.5843 235.728 69.4734 235.926 69.4131 236.14C69.3528 236.355 69.3449 236.581 69.3902 236.799C69.4354 237.018 69.5324 237.222 69.6731 237.395C69.8137 237.568 69.9939 237.705 70.1986 237.794C70.1986 237.794 70.2263 237.892 70.2367 237.928C70.7538 240.537 71.3164 243.12 71.9069 245.708C69.6495 243.089 66.7516 241.097 63.494 239.925C60.3181 238.705 57.0841 237.699 54.0468 236.176C51.3947 234.677 48.8697 232.965 46.497 231.057C44.0978 229.234 41.413 227.818 38.5507 226.868C35.6397 225.929 32.7001 225.354 30.6145 222.901C28.7833 220.784 27.8686 217.893 26.4378 215.464C24.987 212.891 22.6688 210.915 19.8948 209.888C16.6856 208.69 13.2123 208.702 9.89747 207.97C8.26227 207.637 6.69732 207.025 5.27155 206.16C4.57241 205.726 3.94295 205.189 3.40436 204.568C3.265 204.415 3.14562 204.245 3.04909 204.062C2.88605 203.489 2.65837 202.921 2.4674 202.342C2.03724 200.829 -0.436663 201.427 0.0703473 202.931C1.86125 208.765 4.26061 215.111 10.0315 218.112C11.6015 218.984 13.3509 219.186 14.9473 219.918C16.4925 220.777 17.7252 222.102 18.4693 223.704C20.3465 227.383 22.0097 231.168 23.4505 235.039C26.0651 241.165 30.4404 247.952 37.519 249.275C41.0733 249.792 44.7016 249.426 48.0827 248.21C49.8561 247.706 51.5584 246.998 53.271 246.326C54.6658 245.662 56.1856 245.302 57.7296 245.269C59.7289 245.373 60.187 246.891 61.1551 248.343C61.6547 249.126 62.3471 249.767 63.1662 250.206C63.9853 250.645 64.9037 250.867 65.8338 250.85C67.6254 250.921 69.2619 250.772 70.8772 251.711C72.3812 252.582 73.5142 253.971 74.0636 255.618C74.1333 255.823 74.2453 256.011 74.3926 256.17C75.7946 261.706 77.3557 267.196 78.7769 272.752C114.781 412.577 140.019 485.205 146.082 495.508L148.557 499.564C149.627 498.679 150.701 497.807 151.779 496.947C139.785 465.598 126.699 442.312 83.8819 280.57C81.6351 272.111 78.9445 263.764 76.6976 255.304C76.6815 255.195 76.6512 255.088 76.6074 254.987C76.5391 254.677 76.4522 254.371 76.3473 254.072C75.6539 251.385 74.9839 248.688 74.3372 245.98C73.6133 242.876 72.9818 239.772 72.3855 236.605C76.3823 232.344 80.3409 227.948 82.8204 222.627C84.1233 219.818 84.7879 216.622 86.4519 214.013C87.8845 212.029 89.8216 210.463 92.0627 209.477C96.6111 207.155 101.863 205.727 105.581 202.02C109.957 197.65 109.892 191.563 110.509 185.784C111.272 178.679 113.735 171.86 117.692 165.9C117.858 165.602 117.925 165.259 117.882 164.92C117.839 164.582 117.689 164.266 117.454 164.02C117.218 163.773 116.909 163.608 116.573 163.549C116.236 163.489 115.889 163.539 115.583 163.691C110.233 166.547 102.668 176.014 102.668 176.014C102.668 176.014 97.5233 187.815 94.4023 193.436C93.0557 195.956 91.2305 198.19 89.0285 200.014C87.8789 200.916 86.5875 201.622 85.2071 202.103C83.6509 202.478 82.1971 203.193 80.9508 204.197C77.107 207.927 77.1952 212.887 76.7805 217.844C76.3125 223.209 74.6951 228.414 72.0378 233.104L71.8225 233.324C70.6352 226.274 69.8531 219.161 69.48 212.021C69.2955 208.118 69.2577 204.172 69.2811 200.21C71.328 197.675 73.7565 195.472 76.4797 193.679C80.3655 190.794 84.4036 187.747 86.1031 183.031C88.187 177.296 85.9887 170.866 88.516 165.203C89.737 162.538 91.7665 160.323 94.3172 158.872C97.2682 157.163 100.702 157.057 103.837 155.809C110.05 153.251 112.374 146.221 113.88 140.268C113.937 140.034 113.917 139.789 113.825 139.567C113.732 139.346 113.571 139.16 113.364 139.036C113.158 138.912 112.918 138.857 112.678 138.879C112.438 138.901 112.212 138.999 112.031 139.159C109.572 141.345 106.783 143.13 103.766 144.449C100.92 145.836 97.9047 146.844 94.7968 147.448C91.8269 148.068 88.6914 148.525 86.0672 150.128C83.8185 151.491 82.0824 153.556 81.1278 156.003C79.2501 160.743 79.8703 166.039 78.5302 170.904C77.1901 175.768 74.4515 180.503 71.9787 185.056C71.1025 186.624 70.2263 188.192 69.5125 189.819C69.6753 186.3 69.8968 182.787 70.1772 179.279C71.0284 168.975 72.5201 158.833 74.3157 148.643C75.4849 146.98 76.8875 145.493 78.4804 144.228C82.6291 140.873 87.7302 138.961 92.1314 135.982C94.1642 134.711 95.8547 132.962 97.0553 130.89C98.1735 128.778 98.791 126.44 100.07 124.428C102.557 120.438 106.518 118.283 110.89 116.921C115.262 115.559 119.967 114.208 121.873 109.75C122.208 108.929 121.261 108.249 120.546 108.386C114.923 109.484 109.155 109.608 103.512 110.593C99.0611 111.397 94.2962 112.818 91.7143 116.848C89.1325 120.879 90.1382 125.485 88.1502 129.466C86.1622 133.446 81.3525 135.5 77.9853 138.396C77.2089 139.068 76.4782 139.791 75.7983 140.56C77.5126 131.805 79.4434 123.067 81.4266 114.327L81.8739 112.367C84.739 109.984 88.5475 109.151 91.8738 107.506C95.5564 105.687 98.3928 102.518 99.7894 98.6624C101.365 94.9047 101.944 90.8501 103.811 87.2336C104.697 85.5572 105.966 84.1121 107.516 83.0154C109.478 81.6399 111.951 81.4114 114.074 80.3724C116.053 79.3922 117.752 77.9285 119.012 76.1175C120.273 74.3065 121.054 72.2073 121.282 70.0154C121.309 68.9002 119.937 68.5386 119.234 69.1342Z" stroke="black" stroke-width="2" mask="url(#path-1-inside-1_5_642)"/>
</g>
</svg>
