<svg width="31" height="31" viewBox="0 0 31 31" fill="none" xmlns="http://www.w3.org/2000/svg">
<path d="M9.75229 28.0938C21.4475 28.0938 27.8461 18.4021 27.8461 9.99999C27.8461 9.72753 27.8401 9.44902 27.8279 9.17656C29.0727 8.2764 30.1468 7.16142 31 5.88402C29.8408 6.39978 28.61 6.73663 27.3496 6.88304C28.6767 6.0876 29.6703 4.83799 30.1463 3.36587C28.8979 4.10573 27.5326 4.62763 26.109 4.90921C25.1498 3.89002 23.8816 3.2152 22.5004 2.98907C21.1192 2.76295 19.702 2.99811 18.4679 3.65822C17.2338 4.31832 16.2515 5.36659 15.6729 6.64095C15.0943 7.91532 14.9516 9.3448 15.2669 10.7084C12.7391 10.5815 10.2661 9.92488 8.00831 8.78097C5.75053 7.63706 3.75835 6.03145 2.16092 4.06822C1.34902 5.46803 1.10057 7.12447 1.46608 8.70088C1.83159 10.2773 2.78362 11.6554 4.12869 12.5551C3.11889 12.523 2.13122 12.2511 1.24727 11.7619V11.8406C1.24636 13.3096 1.75421 14.7336 2.68448 15.8705C3.61476 17.0074 4.91004 17.7871 6.35016 18.0769C5.41474 18.3329 4.43298 18.3702 3.48084 18.1859C3.88721 19.4493 4.67787 20.5542 5.74245 21.3466C6.80704 22.139 8.09245 22.5792 9.41928 22.6059C7.16671 24.3753 4.38414 25.335 1.51973 25.3305C1.01175 25.3297 0.504265 25.2985 0 25.2372C2.90994 27.1041 6.29498 28.0956 9.75229 28.0938Z" fill="#8AA3A0"/>
</svg>
