<svg width="13" height="11" viewBox="0 0 13 11" fill="none" xmlns="http://www.w3.org/2000/svg">
<path d="M4.08967 10.7816C8.99412 10.7816 11.6774 6.71736 11.6774 3.1939C11.6774 3.07965 11.6749 2.96285 11.6698 2.84859C12.1918 2.47111 12.6422 2.00353 13 1.46785C12.5139 1.68414 11.9977 1.8254 11.4692 1.8868C12.0257 1.55322 12.4424 1.02919 12.642 0.411854C12.1185 0.722115 11.5459 0.940978 10.9489 1.05906C10.5467 0.631659 10.0149 0.348668 9.43566 0.253841C8.85646 0.159014 8.26215 0.257632 7.74461 0.534449C7.22707 0.811266 6.81514 1.25086 6.5725 1.78527C6.32986 2.31969 6.27002 2.91915 6.40225 3.49098C5.34218 3.43778 4.30513 3.1624 3.35832 2.6827C2.41151 2.203 1.57608 1.52968 0.906191 0.706385C0.565716 1.2934 0.461531 1.98804 0.614808 2.64911C0.768086 3.31019 1.16733 3.8881 1.73139 4.26539C1.30792 4.25195 0.893737 4.13793 0.523047 3.93277V3.96578C0.522668 4.58181 0.735636 5.17896 1.12575 5.65573C1.51587 6.1325 2.05905 6.45945 2.66297 6.58101C2.2707 6.68834 1.85899 6.70398 1.45971 6.62672C1.63012 7.15651 1.96169 7.61988 2.40813 7.95216C2.85457 8.28444 3.39361 8.46905 3.95002 8.48023C3.0054 9.22225 1.83851 9.62472 0.637305 9.62281C0.424281 9.62249 0.211466 9.60943 0 9.58371C1.2203 10.3666 2.63983 10.7824 4.08967 10.7816Z" fill="white"/>
</svg>
