<svg width="18" height="20" viewBox="0 0 18 20" fill="none" xmlns="http://www.w3.org/2000/svg">
<path d="M14.8361 4.00894C13.7588 3.30651 12.9812 2.18262 12.7387 0.872464C12.6863 0.589395 12.6575 0.298072 12.6575 0H9.21906L9.21356 13.78C9.15575 15.3231 7.8857 16.5616 6.32874 16.5616C5.84483 16.5616 5.38918 16.4406 4.988 16.2295C4.06801 15.7454 3.43841 14.781 3.43841 13.6713C3.43841 12.0775 4.73508 10.7808 6.32874 10.7808C6.62624 10.7808 6.91162 10.8299 7.18157 10.9145V7.40424C6.9022 7.3662 6.61836 7.34242 6.32874 7.34242C2.839 7.34242 0 10.1816 0 13.6713C0 15.8124 1.06975 17.7072 2.70178 18.853C3.72977 19.5747 4.98018 20 6.32874 20C9.81848 20 12.6575 17.161 12.6575 13.6713V6.68367C14.0061 7.65161 15.6583 8.222 17.4412 8.222V4.7836C16.4808 4.7836 15.5863 4.49808 14.8361 4.00894Z" fill="black"/>
</svg>
