<svg width="375" height="341" viewBox="0 0 375 341" fill="none" xmlns="http://www.w3.org/2000/svg">
<g opacity="0.3">
<path d="M316.453 205.6C327.654 205.077 338.637 206.094 349.867 206.414C359.934 206.69 412.436 208.362 423.956 209.045L423.956 190.352C414.47 191.355 364.67 193.259 356.97 193.855C348.254 194.538 339.538 195.396 330.748 196.065C313.316 197.387 295.723 195.018 278.333 194.858C243.468 194.538 208.486 190.657 173.736 186.965C167.155 186.267 159.833 186.282 153.645 183.549C147.456 180.816 145.393 174.348 145.785 167.909C146.817 150.916 164.264 150.465 176.859 151.454C211.58 154.245 246.664 153.125 281.37 150.683C301.476 149.23 320.957 150.131 341.034 151.381C357.014 152.384 407.962 152.835 423.927 153.14L423.927 133.647C407.947 133.894 356.985 134.432 341.034 135.435C321.77 136.656 303.059 137.703 283.752 136.351C264.692 135.028 245.589 133.953 226.485 134.011C207.382 134.069 188.133 133.618 169.291 136.496C155.49 138.59 142.197 144.011 137.258 158.751C133.117 171.136 137.258 184.581 146.497 193.259C159.238 205.295 178.995 204.568 195.077 205.876C214.195 207.417 233.008 206.371 252.111 206.661C273.67 206.981 294.953 206.618 316.453 205.6Z" fill="#E6E1DB"/>
<path d="M325.606 229.904C339.073 229.904 352.525 229.904 365.977 230.239C373.633 230.399 416.329 230.82 423.956 231.096L423.956 217.331C407.976 217.534 356.782 218.406 340.743 218.377C319.185 218.377 297.616 218.329 276.038 218.232C254.247 218.232 232.456 217.316 210.665 216.778C191.154 216.313 169.32 217.549 150.884 209.932C136.313 203.885 122.948 192.736 118.793 176.427C114.944 161.28 120.057 143.401 133.451 135.232C141.267 130.464 150.565 129.635 159.441 129.112C169.509 128.516 179.591 128.051 189.673 127.658C211.638 126.685 233.589 125.609 255.554 124.751C299.979 123.051 379.517 122.862 423.956 123.632L423.956 107.279C381.42 107.163 303.829 107.802 261.249 108.733C237.279 109.227 213.309 109.939 189.353 111.291C169.015 112.439 147.558 112.12 128.992 121.844C113.36 130.028 104.702 147.035 104.121 164.812C103.539 182.59 111.559 199.379 124.314 211.022C139.161 224.599 157.727 229.919 177.266 230.515C200.51 231.14 223.754 230.311 246.998 229.992C273.22 229.555 299.413 229.803 325.606 229.904Z" fill="#E6E1DB"/>
<path d="M423.956 244.716C379.778 244.208 300.473 243.932 256.353 243.263C231.875 242.899 207.367 242.856 182.903 241.635C161.184 240.53 138.827 237.725 119.941 225.645C111.721 220.435 104.835 213.371 99.835 205.019C94.024 195.076 92.4115 183.665 91.38 172.269C90.3486 160.873 89.753 148.736 94.2855 137.994C98.1498 128.734 105.748 121.35 113.999 116.19C133.887 103.863 159.034 101.218 181.683 99.0226C205.58 96.7114 229.507 96.8713 253.448 97.8452C280.716 98.9499 307.926 100.956 335.179 102.206C353.135 103.02 406.088 103.282 424 103.049L424 85.606C381.159 87.0596 303.306 87.2049 260.421 85.606C234.998 84.6466 209.372 84.0215 183.992 86.0566C160.138 87.9608 134.134 91.5221 112.648 103.064C93.1088 113.573 80.5716 131.685 78.6249 154.521C76.6783 177.357 80.6007 201.254 95.5204 218.872C126.711 255.677 182.235 254.121 225.366 254.877C279.888 255.822 369.479 256.985 424 257.959L423.956 244.716Z" fill="#E6E1DB"/>
<path d="M423.956 286.086L423.956 271.303C373.11 273.192 287.224 275.954 236.248 272.756C208.195 271.012 180.055 268.555 152.265 264.035C128.628 260.226 105.123 253.351 87.661 235.515C55.3956 202.548 51.8219 148.881 80.4699 112.105C95.2007 93.2082 116.658 82.2482 139.001 76.2448C163.881 69.8404 189.625 67.4652 215.255 69.2094C247.012 71.1136 278.479 73.8173 310.323 74.1662C336.472 74.4569 397.763 74.326 423.956 74.0062L423.956 57.0719C369.188 57.9586 279.365 58.9906 224.611 60.0808C197.663 60.6187 170.38 58.1039 143.693 62.6101C119.244 66.7383 95.7528 76.4047 77.9131 94.7636C44.3112 129.403 37.9917 185.119 63.6908 226.459C76.5108 247.131 95.9793 262.823 118.895 270.954C145.524 280.431 175.334 282.045 203.154 283.862C236.567 286.042 270.096 286.129 303.51 285.926C332.027 285.824 395.526 286.202 423.956 286.086Z" fill="#E6E1DB"/>
<path d="M423.956 295.81C374.156 298.252 289.258 299.343 239.458 298.383C210.026 297.802 180.273 297.773 150.986 294.342C123.878 291.101 103.104 278.018 80.3392 262.029C58.8241 246.911 41.5945 223.174 37.4106 196.166C33.0524 168.359 34.1275 145.291 45.7494 120.318C51.7202 107.468 59.0565 94.6909 68.5139 84.2396C78.2472 73.483 90.9006 67.1017 103.481 60.6477C117.776 53.3071 131.229 49.1353 147.209 48.2776C163.189 47.42 178.777 47.1002 194.583 46.6496C229.449 45.6466 264.315 44.3965 299.18 44.571C316.613 44.6436 334.046 44.571 351.377 45.2687C360.094 45.6321 368.81 46.1263 377.411 47.1875C381.246 47.6526 420.121 48.3212 423.898 49.0189L423.898 33.6545C413.729 33.3638 368.549 33.4073 358.438 32.855C341.455 31.9392 324.458 30.9944 307.446 31.0089C274.179 31.0089 240.911 32.0846 207.658 32.9567C190.559 33.3928 173.445 34.2214 156.347 34.265C140.367 34.265 125.331 35.6314 110.44 41.8964C96.9876 47.5654 82.8379 54.3827 71.0561 63.1479C59.2744 71.9131 50.3546 83.6291 42.7277 96.2608C27.5175 121.452 24.641 144.985 25.687 174.915C26.6458 202.242 34.6504 231.605 51.6185 252.828C90.0145 300.971 149.62 309.518 204.999 311.291C266.319 313.297 362.636 314.3 423.898 311.829L423.956 295.81Z" fill="#E6E1DB"/>
<path d="M347.528 339.069C361.329 338.677 410.17 338.546 423.956 338.168L423.956 321.888C395.977 324.112 333 326.801 304.904 327.702C270.216 328.754 235.498 328.002 200.888 325.449C168.753 323.109 135.732 319.94 104.934 309.62C78.0584 300.622 59.071 286.202 42.074 262.712C8.87878 216.851 0.205899 138.357 33.125 88.5132C68.0635 35.6168 124.299 26.7499 181.305 21.5751C219.919 18.0574 258.659 16.3324 297.524 16.4003C328.032 16.4729 393.521 18.1737 423.913 20.0924L423.913 2.7801C395.918 0.614241 332.608 0.0618751 304.628 0.00374035C267.748 -0.0834773 230.901 1.37011 194.089 4.36452C132.928 9.4085 74.2522 17.1852 32.0936 68.657C-8.17644 117.832 -8.0602 193.143 18.6267 247.769C31.5125 274.137 46.0835 295.839 71.0852 310.637C99.1377 327.237 131.519 332.586 163.175 336.264C204.04 341.017 244.862 341.322 285.917 340.828C306.502 340.523 327 339.622 347.528 339.069Z" fill="#E6E1DB"/>
<path d="M342.182 177.938C357.711 177.735 408.412 178.447 423.956 177.837L423.956 162.719C408.441 164.609 357.886 166.615 342.182 167.007C323.557 167.472 304.977 167.458 286.338 166.906C248.712 165.786 210.708 168.548 173.271 163.446C163.029 161.992 161.024 176.964 171.441 177.575C209.212 179.799 247.332 179.872 285.176 178.781C304.178 178.229 323.165 178.185 342.182 177.938Z" fill="#E6E1DB"/>
</g>
</svg>
