<svg width="121" height="325" viewBox="0 0 121 325" fill="none" xmlns="http://www.w3.org/2000/svg">
<mask id="path-1-inside-1_5_631" fill="white">
<path d="M64.8752 146.347C69.7576 130.653 84.0305 120.351 90.28 105.288C98.0918 86.498 94.6091 65.3443 92.0051 45.8549C91.1914 39.6968 90.3776 33.5221 89.9382 27.3308C89.6778 24.0021 89.6127 20.6735 89.6453 17.3448C90.4737 12.2792 92.0428 7.36993 94.2998 2.78186C94.4845 2.42344 94.5522 2.014 94.4929 1.61343C94.4336 1.21285 94.2505 0.842194 93.9704 0.555719C93.6902 0.269244 93.3278 0.0819926 92.9361 0.021367C92.5444 -0.0392585 92.144 0.0299207 91.7935 0.218794C83.8352 4.26313 77.9112 11.2034 73.338 18.8427C68.6028 27.2706 64.5163 36.0626 61.1157 45.1392C57.0796 55.1252 53.3364 65.3443 52.2135 76.1791C51.6564 81.6602 51.8426 87.1937 52.7668 92.6227C53.7107 98.3148 55.0941 103.907 56.2008 109.566C58.7361 121.737 60.4059 134.08 61.1971 146.497C60.2862 167.908 61.3761 189.359 64.452 210.558C67.6093 232.743 72.215 254.679 75.3886 276.848C78.5296 298.717 80.271 321.086 77.3741 343.105C77.0161 345.868 76.6743 348.631 76.2512 351.427C75.828 354.223 79.6852 355.005 80.0595 352.442C83.3144 330.723 81.6869 308.504 79.1969 286.784C76.5929 264.665 72.508 242.762 69.2531 220.71C65.7059 198.438 64.1588 175.881 64.6311 153.321C64.6473 151.008 64.7612 148.678 64.8752 146.347ZM64.1591 85.0833C65.0867 67.4413 68.065 50.1322 75.2421 33.9216C78.1065 27.4473 81.4265 21.2061 84.8605 15.0314C79.6038 35.0034 74.4935 55.0919 70.3923 75.3636C67.6256 89.061 65.3308 102.892 63.6871 116.789C63.5569 106.204 63.6057 95.6352 64.1591 85.0833ZM66.6491 126.692L66.405 127.324C67.8372 113.111 69.9366 98.9472 72.5243 84.9002C76.5604 63.0197 81.1607 41.2447 86.3252 19.575C86.3252 20.557 86.2439 21.5389 86.2439 22.5209C84.6164 29.5277 83.2656 36.5512 82.1915 43.6413C80.9709 51.7133 79.9944 59.8187 78.9365 67.924C77.2547 83.6517 74.4259 99.2289 70.4737 114.525C69.367 118.609 68.0921 122.658 66.6491 126.675V126.692ZM70.7504 124.595C71.3851 122.681 71.9872 120.75 72.5405 118.819C74.667 111.298 76.3356 103.65 77.5369 95.9181C80.1408 79.8739 81.6544 63.6799 83.7538 47.6524C84.177 44.3237 84.6489 40.995 85.1372 37.6664C84.9582 46.8202 85.4952 55.9741 85.7068 65.0613C86.0811 81.7047 84.893 99.0637 77.1625 114.026C75.2747 117.604 72.9312 121.05 70.7504 124.578V124.595ZM92.2655 72.4676C92.9175 82.2438 91.6333 92.054 88.4898 101.311C86.1308 107.202 82.9155 112.695 78.9528 117.604V117.488C82.8916 110.277 85.4698 102.373 86.5531 94.1872C89.0757 76.8781 87.2366 59.3526 87.1064 41.9437C87.1064 39.1975 87.1064 36.4514 87.2203 33.7052C87.5133 36.1851 87.8225 38.6982 88.1805 41.0782C89.7755 51.4637 91.8098 61.8658 92.2655 72.451V72.4676ZM60.123 114.708C59.2442 109.116 58.2025 103.557 57.0796 98.0651C55.8562 92.7404 55.2283 87.2908 55.208 81.8212C55.6257 71.1996 57.8736 60.7369 61.8481 50.9145C63.736 45.9215 65.9168 41.0782 68.1464 36.2517C70.018 32.224 71.9547 28.2129 74.1355 24.3517C76.2826 20.4607 78.7954 16.7929 81.6381 13.4003C78.79 18.6763 76.0396 24.0188 73.5984 29.5278C69.9693 37.6409 67.1978 46.1272 65.3309 54.8423C61.6365 72.3012 61.0832 90.2094 61.1483 108.101C61.1483 113.094 61.2296 118.087 61.2947 123.08C60.9367 120.151 60.5624 117.421 60.123 114.692V114.708Z"/>
<path d="M103.723 104.206C103.593 102.908 101.656 102.425 101.363 103.89C100.989 106.135 100.495 108.357 99.8819 110.547C99.1984 112.727 98.5474 114.941 97.7337 117.071C96.1062 121.365 94.1858 125.609 92.1515 129.737C90.1171 133.864 88.2455 137.975 86.0647 142.003C83.8839 146.031 81.6706 149.875 79.7502 153.97C72.5828 169.382 68.3571 186.052 67.3 203.084C67.0504 206.89 66.9691 210.701 67.0559 214.518C66.9419 215.151 66.7955 215.783 66.6978 216.416C66.647 216.567 66.647 216.731 66.6978 216.882C66.0886 218.641 65.6525 220.459 65.3959 222.307C65.2993 222.748 65.3699 223.209 65.5935 223.599C65.8171 223.988 66.1769 224.276 66.6002 224.404C66.9282 224.469 67.2677 224.435 67.5767 224.304C67.8696 226.834 68.2439 229.297 68.7484 231.844C69.0251 233.242 70.9618 232.643 70.7991 231.295C70.2783 227.234 69.8551 223.139 69.5785 219.028C69.6761 218.712 69.7901 218.429 69.8877 218.113C70.0788 217.961 70.2345 217.768 70.3434 217.547L74.2005 209.708C75.7677 207.416 77.4802 205.231 79.327 203.167C84.7465 197.076 90.7193 191.517 94.7554 184.227C98.4358 177.176 100.86 169.512 101.916 161.592C103.228 152.956 104.038 144.247 104.341 135.512C104.837 125.075 104.63 114.615 103.723 104.206ZM72.1661 206.712C71.1527 208.125 70.2129 209.592 69.3506 211.106V211.023C72.5524 198.723 76.6879 186.698 81.7194 175.057C87.2039 161.626 93.2907 148.427 97.4244 134.397C98.2707 131.518 99.0519 128.622 99.7029 125.693C98.7978 135.053 97.3248 144.347 95.2925 153.52C93.7866 160.548 91.5441 167.389 88.6036 173.925C85.5602 180.582 82.0937 187.073 78.8388 193.614C76.5278 197.975 74.3469 202.352 72.1661 206.712ZM72.8985 180.799C74.9521 172.609 77.8603 164.669 81.5729 157.115C85.4951 149.126 90.3449 141.687 93.9579 133.548C95.8441 129.007 97.3786 124.321 98.5474 119.535C98.9543 118.02 99.41 116.522 99.8819 115.024C99.4914 116.855 99.0519 118.686 98.6125 120.5C97.7825 123.978 96.7572 127.407 95.683 130.819C93.4697 137.809 90.9309 144.699 88.3269 151.54C83.119 165.137 77.1625 178.469 72.6707 192.349C71.5152 195.878 70.4898 199.456 69.5622 203.051C69.9721 195.541 71.0894 188.089 72.8985 180.799ZM92.4281 180.799C89.4336 186.807 85.0394 191.7 80.5801 196.577C83.7483 190.041 86.8622 183.473 89.9218 176.871C92.9253 170.405 95.2703 163.64 96.9199 156.682C98.6081 149.402 99.9173 142.036 100.842 134.613C100.842 134.064 100.956 133.515 101.021 132.949C100.647 141.271 99.947 149.676 98.7915 157.914C97.9182 165.855 95.7796 173.597 92.4607 180.832L92.4281 180.799Z"/>
<path d="M67.772 224.97C68.0524 224.724 68.2481 224.392 68.3301 224.024C68.4121 223.655 68.3762 223.269 68.2277 222.923C64.3809 214.196 61.0283 205.249 58.1863 196.127C55.5172 186.757 54.1501 177.054 52.1646 167.517C50.5843 158.885 48.017 150.472 44.5155 142.453C42.7252 138.53 40.4795 134.841 37.8266 131.468C34.8942 127.931 31.6768 124.652 28.2083 121.665C19.9407 114.225 11.5918 106.869 3.12896 99.6791C2.15248 98.8469 0.346003 99.5792 0.801694 101.044C4.05663 111.329 4.83781 122.148 6.18861 132.799C7.22992 143.038 9.73585 153.064 13.6262 162.558C17.5555 171.696 23.1318 179.995 30.0636 187.023C37.3384 194.33 45.5897 200.538 52.8482 207.828C60.1067 215.117 66.9258 224.271 68.4556 235.206C68.5695 236.071 70.0831 235.888 69.9366 235.006C69.6844 231.573 68.9555 228.194 67.772 224.97ZM22.919 121.532C29.5428 127.523 36.4107 133.332 40.8212 141.304C49.8373 157.498 49.7723 176.721 54.1664 194.38C54.6058 196.044 55.0941 197.825 55.6148 199.523C54.6221 197.292 53.6944 195.046 52.8156 192.765C49.9024 185.076 47.5426 177.171 45.02 169.348C42.6008 161.518 39.7537 153.834 36.4921 146.33C32.8595 138.399 28.3724 130.908 23.1143 123.995C20.8684 120.999 18.4923 118.12 16.0511 115.291C18.3621 117.438 20.6243 119.535 22.919 121.532ZM48.9585 190.935C44.9549 184.793 41.0978 178.569 37.5662 172.144C33.7904 165.332 30.4366 158.283 27.5247 151.04C24.4651 143.351 22.0076 135.429 18.9317 127.74C17.3042 123.729 15.5628 119.818 13.6424 115.99C21.257 124.957 27.8525 134.778 33.3023 145.265C40.5445 159.812 43.7832 175.789 49.0073 191.001L48.9585 190.935ZM18.0366 165.337C13.3415 156.317 10.2918 146.498 9.03668 136.361C7.81608 127.707 7.26274 118.935 5.78175 110.314C11.722 123.629 12.8938 138.741 16.9299 152.705C20.8693 165.433 27.2421 177.234 35.6783 187.423C28.6785 181.101 22.7214 173.666 18.0366 165.404V165.337ZM45.7849 194.763C40.3471 188.783 35.3326 182.414 30.7797 175.706C26.216 168.953 22.5033 161.639 19.7292 153.936C17.2528 146.037 15.2313 137.995 13.675 129.853C12.1417 122.115 9.68769 114.597 6.36764 107.468L8.23922 109.615C11.066 115.137 13.603 120.81 15.8395 126.608C18.8015 134.214 21.145 142.053 23.9768 149.726C29.6697 164.378 36.9463 178.335 45.671 191.334C48.0797 195.062 50.5534 198.757 53.0597 202.402L53.3201 202.785C50.7813 200.155 48.2424 197.492 45.7849 194.763Z"/>
<path d="M118.761 186.108C118.685 185.849 118.538 185.619 118.337 185.444C118.137 185.269 117.891 185.157 117.629 185.122C117.368 185.087 117.102 185.13 116.864 185.246C116.625 185.362 116.425 185.545 116.287 185.775C113.046 192.074 109.162 198.005 104.699 203.467C100.435 209.059 95.9923 214.518 91.9399 220.293C87.7362 226.131 84.3051 232.51 81.7357 239.267C79.2188 246.348 77.6105 253.732 76.9509 261.236C76.186 269.856 76.186 278.53 76.9509 287.15C76.8207 287.499 76.6742 287.832 76.5603 288.182C75.9744 290.046 78.8551 290.828 79.4247 288.964C81.6543 281.724 86.7971 276.082 91.8748 270.789C97.1442 265.565 101.918 259.842 106.131 253.697C114.304 241.058 119.214 226.509 120.404 211.406C121.055 202.936 120.501 194.415 118.761 186.108ZM80.8894 276.731C80.8417 276.845 80.7874 276.956 80.7266 277.064C82.8353 266.514 85.9028 256.19 89.8893 246.224C92.4994 239.862 95.4999 233.675 98.8729 227.7C102.128 221.908 105.708 216.299 108.947 210.49C109.549 209.425 110.086 208.36 110.574 207.278C110.412 208.027 110.233 208.776 110.07 209.508C108.494 215.829 106.28 221.964 103.462 227.816C97.7825 239.916 90.7193 251.233 85.723 263.683C84.0629 267.993 82.4517 272.354 80.8894 276.731ZM86.8134 266.429C89.3439 260.013 92.2739 253.77 95.5854 247.738C101.705 236.404 108.703 225.436 112.283 212.904C113.016 210.341 113.553 207.711 114.073 205.081C110.981 227.45 99.6378 248.121 87.2853 266.662L86.0322 268.526C86.2926 267.843 86.5367 267.128 86.8134 266.429ZM83.6886 242.529C88.4897 229.048 97.7174 218.213 106.213 207.062C107.84 204.948 109.354 202.785 110.819 200.588C109.679 203.018 108.442 205.381 107.189 207.694C103.934 213.586 100.354 219.228 97.1641 225.137C90.6751 237.206 85.5846 250.008 81.996 263.283C80.4359 268.866 79.2077 274.541 78.318 280.276C78.2204 267.494 79.3921 254.579 83.6886 242.529ZM113.536 230.879C111.304 237.96 108.221 244.73 104.358 251.034C100.381 257.264 95.7411 263.024 90.524 268.21C89.1081 269.674 87.6922 271.155 86.3251 272.687C87.1063 271.472 87.9526 270.273 88.7013 269.092C92.5421 263.35 96.2364 257.441 99.6704 251.533C106.791 239.623 112.041 226.644 115.229 213.07C116.513 207.193 117.217 201.199 117.328 195.179C118.467 207.218 117.177 219.369 113.536 230.879Z"/>
<path d="M79.1481 287.583C73.7612 273.652 67.9999 259.755 61.6203 246.257C58.8537 239.905 55.0817 234.062 50.4558 228.965C45.7649 224.316 40.4822 220.336 34.7507 217.131C27.6712 212.937 20.3476 209.093 12.9589 205.481C12.7339 205.357 12.4785 205.302 12.2237 205.324C11.969 205.346 11.7259 205.443 11.5241 205.604C11.3224 205.764 11.1706 205.981 11.0872 206.228C11.0039 206.475 10.9926 206.742 11.0548 206.996C15.3025 220.976 19.4688 235.439 27.4109 247.805C31.2302 253.774 36.0252 259.027 41.5861 263.333C47.2117 267.47 53.052 271.292 59.0814 274.784C65.2495 278.612 71.5316 282.673 76.4302 288.099L76.6255 288.598C76.6997 288.789 76.824 288.955 76.9849 289.079C77.1457 289.202 77.3368 289.278 77.5369 289.297C77.6822 289.394 77.8575 289.432 78.029 289.405C78.2004 289.377 78.3556 289.285 78.4646 289.147C78.7472 289.019 78.9734 288.788 79.0996 288.499C79.2258 288.21 79.2431 287.884 79.1481 287.583ZM64.745 269.658C60.7252 264.865 56.9983 259.805 53.1412 254.878C45.2805 244.809 37.0455 235.073 28.9407 225.203C26.4018 222.108 23.8142 219.045 21.2427 215.95C23.684 217.88 26.1252 219.811 28.5338 221.825C33.4162 225.902 38.201 230.03 42.7579 234.474C45.0126 236.56 47.0972 238.831 48.9911 241.264C50.7299 243.786 52.3326 246.403 53.7921 249.103C57.0471 254.845 60.302 260.637 63.557 266.396L66.8119 272.005C66.1121 271.322 65.4123 270.523 64.745 269.658ZM26.0926 224.305C30.1287 229.214 34.0997 234.174 37.9568 239.284C45.5897 249.27 53.1249 259.422 60.9042 269.325C61.5226 270.107 62.1736 270.856 62.8083 271.622C58.1375 267.511 53.3853 263.483 48.8934 259.206C44.1225 254.665 39.7647 249.69 35.8737 244.343C32.0219 238.917 28.4581 233.284 25.1975 227.467C22.9679 223.572 20.8684 219.578 18.8667 215.55C21.2753 218.479 23.684 221.392 26.0926 224.371V224.305ZM46.1918 229.913C50.8891 234.538 54.7901 239.94 57.7306 245.891C60.9856 252.216 63.915 258.756 66.7794 265.281C68.1464 268.376 69.4647 271.472 70.7829 274.584C69.4647 272.188 68.1464 269.774 66.7956 267.394C63.5407 261.469 60.0741 255.594 56.6727 249.736C55.0453 246.973 53.548 244.127 51.7903 241.414C50.072 238.908 48.1208 236.579 45.964 234.457C41.4396 229.913 36.6549 225.619 31.7725 221.492C29.0058 219.162 26.1577 216.948 23.3422 214.701L22.5122 214.036L30.4217 218.663C36.0704 221.829 41.3593 225.624 46.1918 229.98V229.913ZM30.9913 248.937C26.711 243.115 23.254 236.705 20.7219 229.897C18.726 224.672 17.0145 219.338 15.5954 213.919C20.7635 224.05 26.6433 233.784 33.1884 243.045C36.9133 248.515 41.0372 253.689 45.5246 258.523C49.5445 262.767 53.8084 266.729 58.1537 270.623C54.199 268.143 50.2117 265.73 46.3872 263.084C40.5677 259.241 35.3727 254.49 30.9913 249.003V248.937Z"/>
</mask>
<path d="M64.8752 146.347C69.7576 130.653 84.0305 120.351 90.28 105.288C98.0918 86.498 94.6091 65.3443 92.0051 45.8549C91.1914 39.6968 90.3776 33.5221 89.9382 27.3308C89.6778 24.0021 89.6127 20.6735 89.6453 17.3448C90.4737 12.2792 92.0428 7.36993 94.2998 2.78186C94.4845 2.42344 94.5522 2.014 94.4929 1.61343C94.4336 1.21285 94.2505 0.842194 93.9704 0.555719C93.6902 0.269244 93.3278 0.0819926 92.9361 0.021367C92.5444 -0.0392585 92.144 0.0299207 91.7935 0.218794C83.8352 4.26313 77.9112 11.2034 73.338 18.8427C68.6028 27.2706 64.5163 36.0626 61.1157 45.1392C57.0796 55.1252 53.3364 65.3443 52.2135 76.1791C51.6564 81.6602 51.8426 87.1937 52.7668 92.6227C53.7107 98.3148 55.0941 103.907 56.2008 109.566C58.7361 121.737 60.4059 134.08 61.1971 146.497C60.2862 167.908 61.3761 189.359 64.452 210.558C67.6093 232.743 72.215 254.679 75.3886 276.848C78.5296 298.717 80.271 321.086 77.3741 343.105C77.0161 345.868 76.6743 348.631 76.2512 351.427C75.828 354.223 79.6852 355.005 80.0595 352.442C83.3144 330.723 81.6869 308.504 79.1969 286.784C76.5929 264.665 72.508 242.762 69.2531 220.71C65.7059 198.438 64.1588 175.881 64.6311 153.321C64.6473 151.008 64.7612 148.678 64.8752 146.347ZM64.1591 85.0833C65.0867 67.4413 68.065 50.1322 75.2421 33.9216C78.1065 27.4473 81.4265 21.2061 84.8605 15.0314C79.6038 35.0034 74.4935 55.0919 70.3923 75.3636C67.6256 89.061 65.3308 102.892 63.6871 116.789C63.5569 106.204 63.6057 95.6352 64.1591 85.0833ZM66.6491 126.692L66.405 127.324C67.8372 113.111 69.9366 98.9472 72.5243 84.9002C76.5604 63.0197 81.1607 41.2447 86.3252 19.575C86.3252 20.557 86.2439 21.5389 86.2439 22.5209C84.6164 29.5277 83.2656 36.5512 82.1915 43.6413C80.9709 51.7133 79.9944 59.8187 78.9365 67.924C77.2547 83.6517 74.4259 99.2289 70.4737 114.525C69.367 118.609 68.0921 122.658 66.6491 126.675V126.692ZM70.7504 124.595C71.3851 122.681 71.9872 120.75 72.5405 118.819C74.667 111.298 76.3356 103.65 77.5369 95.9181C80.1408 79.8739 81.6544 63.6799 83.7538 47.6524C84.177 44.3237 84.6489 40.995 85.1372 37.6664C84.9582 46.8202 85.4952 55.9741 85.7068 65.0613C86.0811 81.7047 84.893 99.0637 77.1625 114.026C75.2747 117.604 72.9312 121.05 70.7504 124.578V124.595ZM92.2655 72.4676C92.9175 82.2438 91.6333 92.054 88.4898 101.311C86.1308 107.202 82.9155 112.695 78.9528 117.604V117.488C82.8916 110.277 85.4698 102.373 86.5531 94.1872C89.0757 76.8781 87.2366 59.3526 87.1064 41.9437C87.1064 39.1975 87.1064 36.4514 87.2203 33.7052C87.5133 36.1851 87.8225 38.6982 88.1805 41.0782C89.7755 51.4637 91.8098 61.8658 92.2655 72.451V72.4676ZM60.123 114.708C59.2442 109.116 58.2025 103.557 57.0796 98.0651C55.8562 92.7404 55.2283 87.2908 55.208 81.8212C55.6257 71.1996 57.8736 60.7369 61.8481 50.9145C63.736 45.9215 65.9168 41.0782 68.1464 36.2517C70.018 32.224 71.9547 28.2129 74.1355 24.3517C76.2826 20.4607 78.7954 16.7929 81.6381 13.4003C78.79 18.6763 76.0396 24.0188 73.5984 29.5278C69.9693 37.6409 67.1978 46.1272 65.3309 54.8423C61.6365 72.3012 61.0832 90.2094 61.1483 108.101C61.1483 113.094 61.2296 118.087 61.2947 123.08C60.9367 120.151 60.5624 117.421 60.123 114.692V114.708Z" fill="#8AA3A0"/>
<path d="M103.723 104.206C103.593 102.908 101.656 102.425 101.363 103.89C100.989 106.135 100.495 108.357 99.8819 110.547C99.1984 112.727 98.5474 114.941 97.7337 117.071C96.1062 121.365 94.1858 125.609 92.1515 129.737C90.1171 133.864 88.2455 137.975 86.0647 142.003C83.8839 146.031 81.6706 149.875 79.7502 153.97C72.5828 169.382 68.3571 186.052 67.3 203.084C67.0504 206.89 66.9691 210.701 67.0559 214.518C66.9419 215.151 66.7955 215.783 66.6978 216.416C66.647 216.567 66.647 216.731 66.6978 216.882C66.0886 218.641 65.6525 220.459 65.3959 222.307C65.2993 222.748 65.3699 223.209 65.5935 223.599C65.8171 223.988 66.1769 224.276 66.6002 224.404C66.9282 224.469 67.2677 224.435 67.5767 224.304C67.8696 226.834 68.2439 229.297 68.7484 231.844C69.0251 233.242 70.9618 232.643 70.7991 231.295C70.2783 227.234 69.8551 223.139 69.5785 219.028C69.6761 218.712 69.7901 218.429 69.8877 218.113C70.0788 217.961 70.2345 217.768 70.3434 217.547L74.2005 209.708C75.7677 207.416 77.4802 205.231 79.327 203.167C84.7465 197.076 90.7193 191.517 94.7554 184.227C98.4358 177.176 100.86 169.512 101.916 161.592C103.228 152.956 104.038 144.247 104.341 135.512C104.837 125.075 104.63 114.615 103.723 104.206ZM72.1661 206.712C71.1527 208.125 70.2129 209.592 69.3506 211.106V211.023C72.5524 198.723 76.6879 186.698 81.7194 175.057C87.2039 161.626 93.2907 148.427 97.4244 134.397C98.2707 131.518 99.0519 128.622 99.7029 125.693C98.7978 135.053 97.3248 144.347 95.2925 153.52C93.7866 160.548 91.5441 167.389 88.6036 173.925C85.5602 180.582 82.0937 187.073 78.8388 193.614C76.5278 197.975 74.3469 202.352 72.1661 206.712ZM72.8985 180.799C74.9521 172.609 77.8603 164.669 81.5729 157.115C85.4951 149.126 90.3449 141.687 93.9579 133.548C95.8441 129.007 97.3786 124.321 98.5474 119.535C98.9543 118.02 99.41 116.522 99.8819 115.024C99.4914 116.855 99.0519 118.686 98.6125 120.5C97.7825 123.978 96.7572 127.407 95.683 130.819C93.4697 137.809 90.9309 144.699 88.3269 151.54C83.119 165.137 77.1625 178.469 72.6707 192.349C71.5152 195.878 70.4898 199.456 69.5622 203.051C69.9721 195.541 71.0894 188.089 72.8985 180.799ZM92.4281 180.799C89.4336 186.807 85.0394 191.7 80.5801 196.577C83.7483 190.041 86.8622 183.473 89.9218 176.871C92.9253 170.405 95.2703 163.64 96.9199 156.682C98.6081 149.402 99.9173 142.036 100.842 134.613C100.842 134.064 100.956 133.515 101.021 132.949C100.647 141.271 99.947 149.676 98.7915 157.914C97.9182 165.855 95.7796 173.597 92.4607 180.832L92.4281 180.799Z" fill="#8AA3A0"/>
<path d="M67.772 224.97C68.0524 224.724 68.2481 224.392 68.3301 224.024C68.4121 223.655 68.3762 223.269 68.2277 222.923C64.3809 214.196 61.0283 205.249 58.1863 196.127C55.5172 186.757 54.1501 177.054 52.1646 167.517C50.5843 158.885 48.017 150.472 44.5155 142.453C42.7252 138.53 40.4795 134.841 37.8266 131.468C34.8942 127.931 31.6768 124.652 28.2083 121.665C19.9407 114.225 11.5918 106.869 3.12896 99.6791C2.15248 98.8469 0.346003 99.5792 0.801694 101.044C4.05663 111.329 4.83781 122.148 6.18861 132.799C7.22992 143.038 9.73585 153.064 13.6262 162.558C17.5555 171.696 23.1318 179.995 30.0636 187.023C37.3384 194.33 45.5897 200.538 52.8482 207.828C60.1067 215.117 66.9258 224.271 68.4556 235.206C68.5695 236.071 70.0831 235.888 69.9366 235.006C69.6844 231.573 68.9555 228.194 67.772 224.97ZM22.919 121.532C29.5428 127.523 36.4107 133.332 40.8212 141.304C49.8373 157.498 49.7723 176.721 54.1664 194.38C54.6058 196.044 55.0941 197.825 55.6148 199.523C54.6221 197.292 53.6944 195.046 52.8156 192.765C49.9024 185.076 47.5426 177.171 45.02 169.348C42.6008 161.518 39.7537 153.834 36.4921 146.33C32.8595 138.399 28.3724 130.908 23.1143 123.995C20.8684 120.999 18.4923 118.12 16.0511 115.291C18.3621 117.438 20.6243 119.535 22.919 121.532ZM48.9585 190.935C44.9549 184.793 41.0978 178.569 37.5662 172.144C33.7904 165.332 30.4366 158.283 27.5247 151.04C24.4651 143.351 22.0076 135.429 18.9317 127.74C17.3042 123.729 15.5628 119.818 13.6424 115.99C21.257 124.957 27.8525 134.778 33.3023 145.265C40.5445 159.812 43.7832 175.789 49.0073 191.001L48.9585 190.935ZM18.0366 165.337C13.3415 156.317 10.2918 146.498 9.03668 136.361C7.81608 127.707 7.26274 118.935 5.78175 110.314C11.722 123.629 12.8938 138.741 16.9299 152.705C20.8693 165.433 27.2421 177.234 35.6783 187.423C28.6785 181.101 22.7214 173.666 18.0366 165.404V165.337ZM45.7849 194.763C40.3471 188.783 35.3326 182.414 30.7797 175.706C26.216 168.953 22.5033 161.639 19.7292 153.936C17.2528 146.037 15.2313 137.995 13.675 129.853C12.1417 122.115 9.68769 114.597 6.36764 107.468L8.23922 109.615C11.066 115.137 13.603 120.81 15.8395 126.608C18.8015 134.214 21.145 142.053 23.9768 149.726C29.6697 164.378 36.9463 178.335 45.671 191.334C48.0797 195.062 50.5534 198.757 53.0597 202.402L53.3201 202.785C50.7813 200.155 48.2424 197.492 45.7849 194.763Z" fill="#8AA3A0"/>
<path d="M118.761 186.108C118.685 185.849 118.538 185.619 118.337 185.444C118.137 185.269 117.891 185.157 117.629 185.122C117.368 185.087 117.102 185.13 116.864 185.246C116.625 185.362 116.425 185.545 116.287 185.775C113.046 192.074 109.162 198.005 104.699 203.467C100.435 209.059 95.9923 214.518 91.9399 220.293C87.7362 226.131 84.3051 232.51 81.7357 239.267C79.2188 246.348 77.6105 253.732 76.9509 261.236C76.186 269.856 76.186 278.53 76.9509 287.15C76.8207 287.499 76.6742 287.832 76.5603 288.182C75.9744 290.046 78.8551 290.828 79.4247 288.964C81.6543 281.724 86.7971 276.082 91.8748 270.789C97.1442 265.565 101.918 259.842 106.131 253.697C114.304 241.058 119.214 226.509 120.404 211.406C121.055 202.936 120.501 194.415 118.761 186.108ZM80.8894 276.731C80.8417 276.845 80.7874 276.956 80.7266 277.064C82.8353 266.514 85.9028 256.19 89.8893 246.224C92.4994 239.862 95.4999 233.675 98.8729 227.7C102.128 221.908 105.708 216.299 108.947 210.49C109.549 209.425 110.086 208.36 110.574 207.278C110.412 208.027 110.233 208.776 110.07 209.508C108.494 215.829 106.28 221.964 103.462 227.816C97.7825 239.916 90.7193 251.233 85.723 263.683C84.0629 267.993 82.4517 272.354 80.8894 276.731ZM86.8134 266.429C89.3439 260.013 92.2739 253.77 95.5854 247.738C101.705 236.404 108.703 225.436 112.283 212.904C113.016 210.341 113.553 207.711 114.073 205.081C110.981 227.45 99.6378 248.121 87.2853 266.662L86.0322 268.526C86.2926 267.843 86.5367 267.128 86.8134 266.429ZM83.6886 242.529C88.4897 229.048 97.7174 218.213 106.213 207.062C107.84 204.948 109.354 202.785 110.819 200.588C109.679 203.018 108.442 205.381 107.189 207.694C103.934 213.586 100.354 219.228 97.1641 225.137C90.6751 237.206 85.5846 250.008 81.996 263.283C80.4359 268.866 79.2077 274.541 78.318 280.276C78.2204 267.494 79.3921 254.579 83.6886 242.529ZM113.536 230.879C111.304 237.96 108.221 244.73 104.358 251.034C100.381 257.264 95.7411 263.024 90.524 268.21C89.1081 269.674 87.6922 271.155 86.3251 272.687C87.1063 271.472 87.9526 270.273 88.7013 269.092C92.5421 263.35 96.2364 257.441 99.6704 251.533C106.791 239.623 112.041 226.644 115.229 213.07C116.513 207.193 117.217 201.199 117.328 195.179C118.467 207.218 117.177 219.369 113.536 230.879Z" fill="#8AA3A0"/>
<path d="M79.1481 287.583C73.7612 273.652 67.9999 259.755 61.6203 246.257C58.8537 239.905 55.0817 234.062 50.4558 228.965C45.7649 224.316 40.4822 220.336 34.7507 217.131C27.6712 212.937 20.3476 209.093 12.9589 205.481C12.7339 205.357 12.4785 205.302 12.2237 205.324C11.969 205.346 11.7259 205.443 11.5241 205.604C11.3224 205.764 11.1706 205.981 11.0872 206.228C11.0039 206.475 10.9926 206.742 11.0548 206.996C15.3025 220.976 19.4688 235.439 27.4109 247.805C31.2302 253.774 36.0252 259.027 41.5861 263.333C47.2117 267.47 53.052 271.292 59.0814 274.784C65.2495 278.612 71.5316 282.673 76.4302 288.099L76.6255 288.598C76.6997 288.789 76.824 288.955 76.9849 289.079C77.1457 289.202 77.3368 289.278 77.5369 289.297C77.6822 289.394 77.8575 289.432 78.029 289.405C78.2004 289.377 78.3556 289.285 78.4646 289.147C78.7472 289.019 78.9734 288.788 79.0996 288.499C79.2258 288.21 79.2431 287.884 79.1481 287.583ZM64.745 269.658C60.7252 264.865 56.9983 259.805 53.1412 254.878C45.2805 244.809 37.0455 235.073 28.9407 225.203C26.4018 222.108 23.8142 219.045 21.2427 215.95C23.684 217.88 26.1252 219.811 28.5338 221.825C33.4162 225.902 38.201 230.03 42.7579 234.474C45.0126 236.56 47.0972 238.831 48.9911 241.264C50.7299 243.786 52.3326 246.403 53.7921 249.103C57.0471 254.845 60.302 260.637 63.557 266.396L66.8119 272.005C66.1121 271.322 65.4123 270.523 64.745 269.658ZM26.0926 224.305C30.1287 229.214 34.0997 234.174 37.9568 239.284C45.5897 249.27 53.1249 259.422 60.9042 269.325C61.5226 270.107 62.1736 270.856 62.8083 271.622C58.1375 267.511 53.3853 263.483 48.8934 259.206C44.1225 254.665 39.7647 249.69 35.8737 244.343C32.0219 238.917 28.4581 233.284 25.1975 227.467C22.9679 223.572 20.8684 219.578 18.8667 215.55C21.2753 218.479 23.684 221.392 26.0926 224.371V224.305ZM46.1918 229.913C50.8891 234.538 54.7901 239.94 57.7306 245.891C60.9856 252.216 63.915 258.756 66.7794 265.281C68.1464 268.376 69.4647 271.472 70.7829 274.584C69.4647 272.188 68.1464 269.774 66.7956 267.394C63.5407 261.469 60.0741 255.594 56.6727 249.736C55.0453 246.973 53.548 244.127 51.7903 241.414C50.072 238.908 48.1208 236.579 45.964 234.457C41.4396 229.913 36.6549 225.619 31.7725 221.492C29.0058 219.162 26.1577 216.948 23.3422 214.701L22.5122 214.036L30.4217 218.663C36.0704 221.829 41.3593 225.624 46.1918 229.98V229.913ZM30.9913 248.937C26.711 243.115 23.254 236.705 20.7219 229.897C18.726 224.672 17.0145 219.338 15.5954 213.919C20.7635 224.05 26.6433 233.784 33.1884 243.045C36.9133 248.515 41.0372 253.689 45.5246 258.523C49.5445 262.767 53.8084 266.729 58.1537 270.623C54.199 268.143 50.2117 265.73 46.3872 263.084C40.5677 259.241 35.3727 254.49 30.9913 249.003V248.937Z" fill="#8AA3A0"/>
<path d="M64.8752 146.347C69.7576 130.653 84.0305 120.351 90.28 105.288C98.0918 86.498 94.6091 65.3443 92.0051 45.8549C91.1914 39.6968 90.3776 33.5221 89.9382 27.3308C89.6778 24.0021 89.6127 20.6735 89.6453 17.3448C90.4737 12.2792 92.0428 7.36993 94.2998 2.78186C94.4845 2.42344 94.5522 2.014 94.4929 1.61343C94.4336 1.21285 94.2505 0.842194 93.9704 0.555719C93.6902 0.269244 93.3278 0.0819926 92.9361 0.021367C92.5444 -0.0392585 92.144 0.0299207 91.7935 0.218794C83.8352 4.26313 77.9112 11.2034 73.338 18.8427C68.6028 27.2706 64.5163 36.0626 61.1157 45.1392C57.0796 55.1252 53.3364 65.3443 52.2135 76.1791C51.6564 81.6602 51.8426 87.1937 52.7668 92.6227C53.7107 98.3148 55.0941 103.907 56.2008 109.566C58.7361 121.737 60.4059 134.08 61.1971 146.497C60.2862 167.908 61.3761 189.359 64.452 210.558C67.6093 232.743 72.215 254.679 75.3886 276.848C78.5296 298.717 80.271 321.086 77.3741 343.105C77.0161 345.868 76.6743 348.631 76.2512 351.427C75.828 354.223 79.6852 355.005 80.0595 352.442C83.3144 330.723 81.6869 308.504 79.1969 286.784C76.5929 264.665 72.508 242.762 69.2531 220.71C65.7059 198.438 64.1588 175.881 64.6311 153.321C64.6473 151.008 64.7612 148.678 64.8752 146.347ZM64.1591 85.0833C65.0867 67.4413 68.065 50.1322 75.2421 33.9216C78.1065 27.4473 81.4265 21.2061 84.8605 15.0314C79.6038 35.0034 74.4935 55.0919 70.3923 75.3636C67.6256 89.061 65.3308 102.892 63.6871 116.789C63.5569 106.204 63.6057 95.6352 64.1591 85.0833ZM66.6491 126.692L66.405 127.324C67.8372 113.111 69.9366 98.9472 72.5243 84.9002C76.5604 63.0197 81.1607 41.2447 86.3252 19.575C86.3252 20.557 86.2439 21.5389 86.2439 22.5209C84.6164 29.5277 83.2656 36.5512 82.1915 43.6413C80.9709 51.7133 79.9944 59.8187 78.9365 67.924C77.2547 83.6517 74.4259 99.2289 70.4737 114.525C69.367 118.609 68.0921 122.658 66.6491 126.675V126.692ZM70.7504 124.595C71.3851 122.681 71.9872 120.75 72.5405 118.819C74.667 111.298 76.3356 103.65 77.5369 95.9181C80.1408 79.8739 81.6544 63.6799 83.7538 47.6524C84.177 44.3237 84.6489 40.995 85.1372 37.6664C84.9582 46.8202 85.4952 55.9741 85.7068 65.0613C86.0811 81.7047 84.893 99.0637 77.1625 114.026C75.2747 117.604 72.9312 121.05 70.7504 124.578V124.595ZM92.2655 72.4676C92.9175 82.2438 91.6333 92.054 88.4898 101.311C86.1308 107.202 82.9155 112.695 78.9528 117.604V117.488C82.8916 110.277 85.4698 102.373 86.5531 94.1872C89.0757 76.8781 87.2366 59.3526 87.1064 41.9437C87.1064 39.1975 87.1064 36.4514 87.2203 33.7052C87.5133 36.1851 87.8225 38.6982 88.1805 41.0782C89.7755 51.4637 91.8098 61.8658 92.2655 72.451V72.4676ZM60.123 114.708C59.2442 109.116 58.2025 103.557 57.0796 98.0651C55.8562 92.7404 55.2283 87.2908 55.208 81.8212C55.6257 71.1996 57.8736 60.7369 61.8481 50.9145C63.736 45.9215 65.9168 41.0782 68.1464 36.2517C70.018 32.224 71.9547 28.2129 74.1355 24.3517C76.2826 20.4607 78.7954 16.7929 81.6381 13.4003C78.79 18.6763 76.0396 24.0188 73.5984 29.5278C69.9693 37.6409 67.1978 46.1272 65.3309 54.8423C61.6365 72.3012 61.0832 90.2094 61.1483 108.101C61.1483 113.094 61.2296 118.087 61.2947 123.08C60.9367 120.151 60.5624 117.421 60.123 114.692V114.708Z" stroke="black" stroke-width="2" mask="url(#path-1-inside-1_5_631)"/>
<path d="M103.723 104.206C103.593 102.908 101.656 102.425 101.363 103.89C100.989 106.135 100.495 108.357 99.8819 110.547C99.1984 112.727 98.5474 114.941 97.7337 117.071C96.1062 121.365 94.1858 125.609 92.1515 129.737C90.1171 133.864 88.2455 137.975 86.0647 142.003C83.8839 146.031 81.6706 149.875 79.7502 153.97C72.5828 169.382 68.3571 186.052 67.3 203.084C67.0504 206.89 66.9691 210.701 67.0559 214.518C66.9419 215.151 66.7955 215.783 66.6978 216.416C66.647 216.567 66.647 216.731 66.6978 216.882C66.0886 218.641 65.6525 220.459 65.3959 222.307C65.2993 222.748 65.3699 223.209 65.5935 223.599C65.8171 223.988 66.1769 224.276 66.6002 224.404C66.9282 224.469 67.2677 224.435 67.5767 224.304C67.8696 226.834 68.2439 229.297 68.7484 231.844C69.0251 233.242 70.9618 232.643 70.7991 231.295C70.2783 227.234 69.8551 223.139 69.5785 219.028C69.6761 218.712 69.7901 218.429 69.8877 218.113C70.0788 217.961 70.2345 217.768 70.3434 217.547L74.2005 209.708C75.7677 207.416 77.4802 205.231 79.327 203.167C84.7465 197.076 90.7193 191.517 94.7554 184.227C98.4358 177.176 100.86 169.512 101.916 161.592C103.228 152.956 104.038 144.247 104.341 135.512C104.837 125.075 104.63 114.615 103.723 104.206ZM72.1661 206.712C71.1527 208.125 70.2129 209.592 69.3506 211.106V211.023C72.5524 198.723 76.6879 186.698 81.7194 175.057C87.2039 161.626 93.2907 148.427 97.4244 134.397C98.2707 131.518 99.0519 128.622 99.7029 125.693C98.7978 135.053 97.3248 144.347 95.2925 153.52C93.7866 160.548 91.5441 167.389 88.6036 173.925C85.5602 180.582 82.0937 187.073 78.8388 193.614C76.5278 197.975 74.3469 202.352 72.1661 206.712ZM72.8985 180.799C74.9521 172.609 77.8603 164.669 81.5729 157.115C85.4951 149.126 90.3449 141.687 93.9579 133.548C95.8441 129.007 97.3786 124.321 98.5474 119.535C98.9543 118.02 99.41 116.522 99.8819 115.024C99.4914 116.855 99.0519 118.686 98.6125 120.5C97.7825 123.978 96.7572 127.407 95.683 130.819C93.4697 137.809 90.9309 144.699 88.3269 151.54C83.119 165.137 77.1625 178.469 72.6707 192.349C71.5152 195.878 70.4898 199.456 69.5622 203.051C69.9721 195.541 71.0894 188.089 72.8985 180.799ZM92.4281 180.799C89.4336 186.807 85.0394 191.7 80.5801 196.577C83.7483 190.041 86.8622 183.473 89.9218 176.871C92.9253 170.405 95.2703 163.64 96.9199 156.682C98.6081 149.402 99.9173 142.036 100.842 134.613C100.842 134.064 100.956 133.515 101.021 132.949C100.647 141.271 99.947 149.676 98.7915 157.914C97.9182 165.855 95.7796 173.597 92.4607 180.832L92.4281 180.799Z" stroke="black" stroke-width="2" mask="url(#path-1-inside-1_5_631)"/>
<path d="M67.772 224.97C68.0524 224.724 68.2481 224.392 68.3301 224.024C68.4121 223.655 68.3762 223.269 68.2277 222.923C64.3809 214.196 61.0283 205.249 58.1863 196.127C55.5172 186.757 54.1501 177.054 52.1646 167.517C50.5843 158.885 48.017 150.472 44.5155 142.453C42.7252 138.53 40.4795 134.841 37.8266 131.468C34.8942 127.931 31.6768 124.652 28.2083 121.665C19.9407 114.225 11.5918 106.869 3.12896 99.6791C2.15248 98.8469 0.346003 99.5792 0.801694 101.044C4.05663 111.329 4.83781 122.148 6.18861 132.799C7.22992 143.038 9.73585 153.064 13.6262 162.558C17.5555 171.696 23.1318 179.995 30.0636 187.023C37.3384 194.33 45.5897 200.538 52.8482 207.828C60.1067 215.117 66.9258 224.271 68.4556 235.206C68.5695 236.071 70.0831 235.888 69.9366 235.006C69.6844 231.573 68.9555 228.194 67.772 224.97ZM22.919 121.532C29.5428 127.523 36.4107 133.332 40.8212 141.304C49.8373 157.498 49.7723 176.721 54.1664 194.38C54.6058 196.044 55.0941 197.825 55.6148 199.523C54.6221 197.292 53.6944 195.046 52.8156 192.765C49.9024 185.076 47.5426 177.171 45.02 169.348C42.6008 161.518 39.7537 153.834 36.4921 146.33C32.8595 138.399 28.3724 130.908 23.1143 123.995C20.8684 120.999 18.4923 118.12 16.0511 115.291C18.3621 117.438 20.6243 119.535 22.919 121.532ZM48.9585 190.935C44.9549 184.793 41.0978 178.569 37.5662 172.144C33.7904 165.332 30.4366 158.283 27.5247 151.04C24.4651 143.351 22.0076 135.429 18.9317 127.74C17.3042 123.729 15.5628 119.818 13.6424 115.99C21.257 124.957 27.8525 134.778 33.3023 145.265C40.5445 159.812 43.7832 175.789 49.0073 191.001L48.9585 190.935ZM18.0366 165.337C13.3415 156.317 10.2918 146.498 9.03668 136.361C7.81608 127.707 7.26274 118.935 5.78175 110.314C11.722 123.629 12.8938 138.741 16.9299 152.705C20.8693 165.433 27.2421 177.234 35.6783 187.423C28.6785 181.101 22.7214 173.666 18.0366 165.404V165.337ZM45.7849 194.763C40.3471 188.783 35.3326 182.414 30.7797 175.706C26.216 168.953 22.5033 161.639 19.7292 153.936C17.2528 146.037 15.2313 137.995 13.675 129.853C12.1417 122.115 9.68769 114.597 6.36764 107.468L8.23922 109.615C11.066 115.137 13.603 120.81 15.8395 126.608C18.8015 134.214 21.145 142.053 23.9768 149.726C29.6697 164.378 36.9463 178.335 45.671 191.334C48.0797 195.062 50.5534 198.757 53.0597 202.402L53.3201 202.785C50.7813 200.155 48.2424 197.492 45.7849 194.763Z" stroke="black" stroke-width="2" mask="url(#path-1-inside-1_5_631)"/>
<path d="M118.761 186.108C118.685 185.849 118.538 185.619 118.337 185.444C118.137 185.269 117.891 185.157 117.629 185.122C117.368 185.087 117.102 185.13 116.864 185.246C116.625 185.362 116.425 185.545 116.287 185.775C113.046 192.074 109.162 198.005 104.699 203.467C100.435 209.059 95.9923 214.518 91.9399 220.293C87.7362 226.131 84.3051 232.51 81.7357 239.267C79.2188 246.348 77.6105 253.732 76.9509 261.236C76.186 269.856 76.186 278.53 76.9509 287.15C76.8207 287.499 76.6742 287.832 76.5603 288.182C75.9744 290.046 78.8551 290.828 79.4247 288.964C81.6543 281.724 86.7971 276.082 91.8748 270.789C97.1442 265.565 101.918 259.842 106.131 253.697C114.304 241.058 119.214 226.509 120.404 211.406C121.055 202.936 120.501 194.415 118.761 186.108ZM80.8894 276.731C80.8417 276.845 80.7874 276.956 80.7266 277.064C82.8353 266.514 85.9028 256.19 89.8893 246.224C92.4994 239.862 95.4999 233.675 98.8729 227.7C102.128 221.908 105.708 216.299 108.947 210.49C109.549 209.425 110.086 208.36 110.574 207.278C110.412 208.027 110.233 208.776 110.07 209.508C108.494 215.829 106.28 221.964 103.462 227.816C97.7825 239.916 90.7193 251.233 85.723 263.683C84.0629 267.993 82.4517 272.354 80.8894 276.731ZM86.8134 266.429C89.3439 260.013 92.2739 253.77 95.5854 247.738C101.705 236.404 108.703 225.436 112.283 212.904C113.016 210.341 113.553 207.711 114.073 205.081C110.981 227.45 99.6378 248.121 87.2853 266.662L86.0322 268.526C86.2926 267.843 86.5367 267.128 86.8134 266.429ZM83.6886 242.529C88.4897 229.048 97.7174 218.213 106.213 207.062C107.84 204.948 109.354 202.785 110.819 200.588C109.679 203.018 108.442 205.381 107.189 207.694C103.934 213.586 100.354 219.228 97.1641 225.137C90.6751 237.206 85.5846 250.008 81.996 263.283C80.4359 268.866 79.2077 274.541 78.318 280.276C78.2204 267.494 79.3921 254.579 83.6886 242.529ZM113.536 230.879C111.304 237.96 108.221 244.73 104.358 251.034C100.381 257.264 95.7411 263.024 90.524 268.21C89.1081 269.674 87.6922 271.155 86.3251 272.687C87.1063 271.472 87.9526 270.273 88.7013 269.092C92.5421 263.35 96.2364 257.441 99.6704 251.533C106.791 239.623 112.041 226.644 115.229 213.07C116.513 207.193 117.217 201.199 117.328 195.179C118.467 207.218 117.177 219.369 113.536 230.879Z" stroke="black" stroke-width="2" mask="url(#path-1-inside-1_5_631)"/>
<path d="M79.1481 287.583C73.7612 273.652 67.9999 259.755 61.6203 246.257C58.8537 239.905 55.0817 234.062 50.4558 228.965C45.7649 224.316 40.4822 220.336 34.7507 217.131C27.6712 212.937 20.3476 209.093 12.9589 205.481C12.7339 205.357 12.4785 205.302 12.2237 205.324C11.969 205.346 11.7259 205.443 11.5241 205.604C11.3224 205.764 11.1706 205.981 11.0872 206.228C11.0039 206.475 10.9926 206.742 11.0548 206.996C15.3025 220.976 19.4688 235.439 27.4109 247.805C31.2302 253.774 36.0252 259.027 41.5861 263.333C47.2117 267.47 53.052 271.292 59.0814 274.784C65.2495 278.612 71.5316 282.673 76.4302 288.099L76.6255 288.598C76.6997 288.789 76.824 288.955 76.9849 289.079C77.1457 289.202 77.3368 289.278 77.5369 289.297C77.6822 289.394 77.8575 289.432 78.029 289.405C78.2004 289.377 78.3556 289.285 78.4646 289.147C78.7472 289.019 78.9734 288.788 79.0996 288.499C79.2258 288.21 79.2431 287.884 79.1481 287.583ZM64.745 269.658C60.7252 264.865 56.9983 259.805 53.1412 254.878C45.2805 244.809 37.0455 235.073 28.9407 225.203C26.4018 222.108 23.8142 219.045 21.2427 215.95C23.684 217.88 26.1252 219.811 28.5338 221.825C33.4162 225.902 38.201 230.03 42.7579 234.474C45.0126 236.56 47.0972 238.831 48.9911 241.264C50.7299 243.786 52.3326 246.403 53.7921 249.103C57.0471 254.845 60.302 260.637 63.557 266.396L66.8119 272.005C66.1121 271.322 65.4123 270.523 64.745 269.658ZM26.0926 224.305C30.1287 229.214 34.0997 234.174 37.9568 239.284C45.5897 249.27 53.1249 259.422 60.9042 269.325C61.5226 270.107 62.1736 270.856 62.8083 271.622C58.1375 267.511 53.3853 263.483 48.8934 259.206C44.1225 254.665 39.7647 249.69 35.8737 244.343C32.0219 238.917 28.4581 233.284 25.1975 227.467C22.9679 223.572 20.8684 219.578 18.8667 215.55C21.2753 218.479 23.684 221.392 26.0926 224.371V224.305ZM46.1918 229.913C50.8891 234.538 54.7901 239.94 57.7306 245.891C60.9856 252.216 63.915 258.756 66.7794 265.281C68.1464 268.376 69.4647 271.472 70.7829 274.584C69.4647 272.188 68.1464 269.774 66.7956 267.394C63.5407 261.469 60.0741 255.594 56.6727 249.736C55.0453 246.973 53.548 244.127 51.7903 241.414C50.072 238.908 48.1208 236.579 45.964 234.457C41.4396 229.913 36.6549 225.619 31.7725 221.492C29.0058 219.162 26.1577 216.948 23.3422 214.701L22.5122 214.036L30.4217 218.663C36.0704 221.829 41.3593 225.624 46.1918 229.98V229.913ZM30.9913 248.937C26.711 243.115 23.254 236.705 20.7219 229.897C18.726 224.672 17.0145 219.338 15.5954 213.919C20.7635 224.05 26.6433 233.784 33.1884 243.045C36.9133 248.515 41.0372 253.689 45.5246 258.523C49.5445 262.767 53.8084 266.729 58.1537 270.623C54.199 268.143 50.2117 265.73 46.3872 263.084C40.5677 259.241 35.3727 254.49 30.9913 249.003V248.937Z" stroke="black" stroke-width="2" mask="url(#path-1-inside-1_5_631)"/>
</svg>
