<svg width="1252" height="364" viewBox="0 0 1252 364" fill="none" xmlns="http://www.w3.org/2000/svg">
<path d="M27.2257 320.287C20.442 315.569 15.3369 308.814 12.6505 301C10.3438 308.995 5.9821 316.246 0 322.031C5.29277 326.461 12.4701 333.879 15.2969 342.781C17.1812 334.348 21.3017 326.577 27.2257 320.287Z" fill="white"/>
<path d="M1251.13 341.266C1244.35 336.555 1239.25 329.806 1236.57 322C1234.29 330.005 1229.96 337.275 1224 343.091C1229.29 347.502 1236.45 354.919 1239.3 363.841C1241.15 355.395 1245.24 347.6 1251.13 341.266Z" fill="white"/>
<path d="M208 30.0048C197.526 22.6752 189.648 12.1625 185.515 0C181.957 12.4385 175.228 23.7193 166 32.7183C174.165 39.6113 185.237 51.1516 189.598 65C192.505 51.8801 198.861 39.7918 208 30.0048Z" fill="white"/>
</svg>
